G75*
%MOIN*%
%OFA0B0*%
%FSLAX25Y25*%
%IPPOS*%
%LPD*%
%AMOC8*
5,1,8,0,0,1.08239X$1,22.5*
%
%ADD10R,0.07400X0.07400*%
%ADD11C,0.07400*%
%ADD12R,0.07000X0.07000*%
%ADD13C,0.04756*%
%ADD14C,0.05150*%
%ADD15R,0.05150X0.05150*%
%ADD16R,0.07900X0.05900*%
%ADD17R,0.07900X0.15000*%
%ADD18C,0.06300*%
%ADD19OC8,0.06300*%
%ADD20OC8,0.05200*%
%ADD21C,0.02400*%
%ADD22R,0.03962X0.03962*%
D10*
X0221000Y0261000D03*
D11*
X0221000Y0251000D03*
X0221000Y0241000D03*
X0221000Y0231000D03*
X0221000Y0221000D03*
X0221000Y0211000D03*
X0221000Y0201000D03*
X0221000Y0191000D03*
X0221000Y0181000D03*
X0221000Y0171000D03*
X0221000Y0161000D03*
X0221000Y0151000D03*
X0221000Y0141000D03*
X0221000Y0131000D03*
X0221000Y0121000D03*
X0221000Y0111000D03*
X0221000Y0101000D03*
X0221000Y0091000D03*
X0221000Y0081000D03*
X0221000Y0071000D03*
X0281000Y0071000D03*
X0281000Y0081000D03*
X0281000Y0091000D03*
X0281000Y0101000D03*
X0281000Y0111000D03*
X0281000Y0121000D03*
X0281000Y0131000D03*
X0281000Y0141000D03*
X0281000Y0151000D03*
X0281000Y0161000D03*
X0281000Y0171000D03*
X0281000Y0181000D03*
X0281000Y0191000D03*
X0281000Y0201000D03*
X0281000Y0211000D03*
X0281000Y0221000D03*
X0281000Y0231000D03*
X0281000Y0241000D03*
X0281000Y0251000D03*
X0281000Y0261000D03*
D12*
X0361000Y0191000D03*
X0161000Y0101000D03*
X0131000Y0021000D03*
D13*
X0128622Y0031000D02*
X0133378Y0031000D01*
X0133378Y0041000D02*
X0128622Y0041000D01*
X0128622Y0051000D02*
X0133378Y0051000D01*
X0133378Y0061000D02*
X0128622Y0061000D01*
X0128622Y0071000D02*
X0133378Y0071000D01*
X0133378Y0081000D02*
X0128622Y0081000D01*
X0128622Y0091000D02*
X0133378Y0091000D01*
X0133378Y0101000D02*
X0128622Y0101000D01*
X0128622Y0111000D02*
X0133378Y0111000D01*
X0158622Y0111000D02*
X0163378Y0111000D01*
X0163378Y0121000D02*
X0158622Y0121000D01*
X0158622Y0131000D02*
X0163378Y0131000D01*
X0163378Y0141000D02*
X0158622Y0141000D01*
X0158622Y0151000D02*
X0163378Y0151000D01*
X0163378Y0161000D02*
X0158622Y0161000D01*
X0158622Y0171000D02*
X0163378Y0171000D01*
X0163378Y0181000D02*
X0158622Y0181000D01*
X0158622Y0191000D02*
X0163378Y0191000D01*
X0358622Y0181000D02*
X0363378Y0181000D01*
X0363378Y0171000D02*
X0358622Y0171000D01*
X0358622Y0161000D02*
X0363378Y0161000D01*
X0363378Y0151000D02*
X0358622Y0151000D01*
X0358622Y0141000D02*
X0363378Y0141000D01*
X0363378Y0131000D02*
X0358622Y0131000D01*
X0358622Y0121000D02*
X0363378Y0121000D01*
X0363378Y0111000D02*
X0358622Y0111000D01*
X0358622Y0101000D02*
X0363378Y0101000D01*
D14*
X0271000Y0051000D03*
X0261000Y0051000D03*
X0251000Y0051000D03*
X0241000Y0051000D03*
X0231000Y0051000D03*
X0241000Y0041000D03*
X0251000Y0041000D03*
X0271000Y0041000D03*
X0105995Y0041197D03*
X0095995Y0041197D03*
X0105995Y0031197D03*
X0105995Y0051197D03*
X0095995Y0051197D03*
X0105995Y0061197D03*
D15*
X0095995Y0061197D03*
X0095995Y0031197D03*
X0231000Y0041000D03*
D16*
X0053400Y0091900D03*
X0053400Y0100900D03*
X0053400Y0109900D03*
D17*
X0028600Y0101000D03*
D18*
X0081000Y0101000D03*
D19*
X0081000Y0111000D03*
D20*
X0181000Y0231000D03*
X0196000Y0231000D03*
X0196000Y0261000D03*
X0181000Y0261000D03*
X0291000Y0191000D03*
X0291000Y0181000D03*
X0321000Y0181000D03*
X0321000Y0191000D03*
X0331000Y0091000D03*
X0331000Y0081000D03*
X0301000Y0081000D03*
X0301000Y0091000D03*
D21*
X0066000Y0079500D02*
X0066000Y0016000D01*
X0121000Y0016000D01*
X0126000Y0021000D01*
X0131000Y0021000D01*
X0126000Y0026000D02*
X0096000Y0026000D01*
X0096000Y0031192D01*
X0095995Y0031197D01*
X0075803Y0031197D01*
X0076000Y0041000D01*
X0076000Y0091000D01*
X0101000Y0091000D01*
X0101000Y0111000D01*
X0081000Y0111000D01*
X0069900Y0109900D01*
X0053400Y0109900D01*
X0053400Y0100900D02*
X0065900Y0100900D01*
X0081000Y0101000D01*
X0081000Y0081000D02*
X0121000Y0081000D01*
X0121000Y0071000D01*
X0131000Y0071000D01*
X0131000Y0061000D02*
X0116000Y0061000D01*
X0116000Y0076000D01*
X0091000Y0076000D01*
X0086000Y0071000D01*
X0086000Y0056000D01*
X0090803Y0051197D01*
X0095995Y0051197D01*
X0101000Y0056202D02*
X0101000Y0046000D01*
X0105803Y0041197D01*
X0105995Y0041197D01*
X0095995Y0041197D02*
X0081197Y0041197D01*
X0081000Y0041000D01*
X0081000Y0081000D01*
X0066000Y0079500D02*
X0053400Y0091900D01*
X0095995Y0065995D02*
X0095995Y0061197D01*
X0095995Y0065995D02*
X0101000Y0071000D01*
X0111000Y0071000D01*
X0111000Y0051000D01*
X0131000Y0041000D01*
X0131000Y0031000D02*
X0126000Y0026000D01*
X0120803Y0031197D02*
X0105995Y0031197D01*
X0101000Y0056202D02*
X0105995Y0061197D01*
X0161000Y0101000D02*
X0166000Y0096000D01*
X0171000Y0096000D01*
X0181000Y0091000D02*
X0221000Y0091000D01*
X0221000Y0081000D02*
X0191000Y0081000D01*
X0201000Y0071000D02*
X0221000Y0071000D01*
X0231000Y0051000D02*
X0231000Y0161000D01*
X0221000Y0161000D01*
X0221000Y0171000D02*
X0241000Y0171000D01*
X0241000Y0051000D01*
X0251000Y0051000D02*
X0251000Y0191000D01*
X0221000Y0191000D01*
X0201000Y0191000D02*
X0161000Y0191000D01*
X0161000Y0181000D02*
X0191000Y0181000D01*
X0186000Y0171000D02*
X0161000Y0171000D01*
X0161000Y0161000D02*
X0181000Y0161000D01*
X0161000Y0151000D02*
X0206000Y0151000D01*
X0206000Y0216000D01*
X0171000Y0216000D01*
X0171000Y0241000D01*
X0196000Y0241000D01*
X0196000Y0231000D01*
X0221000Y0231000D01*
X0221000Y0221000D02*
X0211000Y0221000D01*
X0211000Y0141000D01*
X0161000Y0141000D01*
X0161000Y0131000D02*
X0211000Y0131000D01*
X0221000Y0131000D01*
X0221000Y0121000D02*
X0196000Y0121000D01*
X0161000Y0121000D01*
X0161000Y0111000D02*
X0176000Y0111000D01*
X0176000Y0031000D01*
X0241000Y0031000D01*
X0241000Y0041000D01*
X0271000Y0051000D02*
X0271000Y0201000D01*
X0281000Y0201000D01*
X0281000Y0191000D02*
X0291000Y0191000D01*
X0291000Y0181000D02*
X0281000Y0181000D01*
X0281000Y0171000D02*
X0361000Y0171000D01*
X0361000Y0161000D02*
X0281000Y0161000D01*
X0281000Y0141000D02*
X0301000Y0141000D01*
X0311000Y0151000D02*
X0361000Y0151000D01*
X0361000Y0141000D02*
X0321000Y0141000D01*
X0301000Y0111000D02*
X0361000Y0111000D01*
X0361000Y0121000D02*
X0281000Y0121000D01*
X0281000Y0131000D02*
X0361000Y0131000D01*
X0361000Y0101000D02*
X0296000Y0101000D01*
X0301000Y0091000D02*
X0281000Y0091000D01*
X0281000Y0081000D02*
X0301000Y0081000D01*
X0321000Y0081000D01*
X0321000Y0091000D01*
X0311000Y0091000D02*
X0301000Y0091000D01*
X0331000Y0091000D02*
X0331000Y0081000D01*
X0331000Y0091000D02*
X0351000Y0091000D01*
X0341000Y0026000D02*
X0211000Y0026000D01*
X0221000Y0101000D02*
X0186000Y0101000D01*
X0321000Y0181000D02*
X0341000Y0181000D01*
X0351000Y0181000D02*
X0361000Y0181000D01*
X0351000Y0181000D02*
X0351000Y0251000D01*
X0281000Y0251000D01*
X0221000Y0251000D01*
X0176000Y0251000D01*
X0181000Y0231000D02*
X0181000Y0221000D01*
X0211000Y0221000D01*
X0321000Y0191000D02*
X0346000Y0191000D01*
D22*
X0346000Y0191000D03*
X0341000Y0181000D03*
X0311000Y0151000D03*
X0301000Y0141000D03*
X0321000Y0141000D03*
X0301000Y0111000D03*
X0296000Y0101000D03*
X0311000Y0091000D03*
X0321000Y0091000D03*
X0351000Y0091000D03*
X0341000Y0026000D03*
X0211000Y0026000D03*
X0201000Y0071000D03*
X0191000Y0081000D03*
X0181000Y0091000D03*
X0171000Y0096000D03*
X0186000Y0101000D03*
X0176000Y0111000D03*
X0196000Y0121000D03*
X0211000Y0131000D03*
X0181000Y0161000D03*
X0186000Y0171000D03*
X0191000Y0181000D03*
X0201000Y0191000D03*
X0176000Y0251000D03*
X0120803Y0031197D03*
M02*
