G75*
%MOIN*%
%OFA0B0*%
%FSLAX25Y25*%
%IPPOS*%
%LPD*%
%AMOC8*
5,1,8,0,0,1.08239X$1,22.5*
%
%ADD10C,0.00500*%
%ADD11C,0.00100*%
%ADD12C,0.00400*%
%ADD13C,0.00800*%
%ADD14C,0.00600*%
D10*
X0014745Y0018697D02*
X0014745Y0074947D01*
X0044745Y0074947D01*
X0044745Y0018697D01*
X0112245Y0018697D01*
X0112245Y0074947D01*
X0044745Y0074947D01*
X0044745Y0018697D02*
X0014745Y0018697D01*
X0126000Y0016000D02*
X0126000Y0116000D01*
X0136000Y0116000D01*
X0136000Y0016000D01*
X0126000Y0016000D01*
X0226000Y0036000D02*
X0241000Y0036000D01*
X0226000Y0036000D02*
X0226000Y0056000D01*
X0276000Y0056000D01*
X0276000Y0036000D01*
X0261000Y0036000D01*
X0166000Y0096000D02*
X0166000Y0196000D01*
X0156000Y0196000D01*
X0156000Y0096000D01*
X0166000Y0096000D01*
X0356000Y0096000D02*
X0366000Y0096000D01*
X0366000Y0196000D01*
X0356000Y0196000D01*
X0356000Y0096000D01*
D11*
X0350578Y0149450D02*
X0350077Y0149950D01*
X0350327Y0149950D02*
X0349577Y0149950D01*
X0349577Y0149450D02*
X0349577Y0150951D01*
X0350327Y0150951D01*
X0350578Y0150701D01*
X0350578Y0150201D01*
X0350327Y0149950D01*
X0349104Y0149450D02*
X0348103Y0149450D01*
X0348103Y0150951D01*
X0349104Y0150951D01*
X0348604Y0150201D02*
X0348103Y0150201D01*
X0347631Y0150951D02*
X0346630Y0150951D01*
X0347131Y0150951D02*
X0347131Y0149450D01*
X0346158Y0149700D02*
X0345908Y0149450D01*
X0345407Y0149450D01*
X0345157Y0149700D01*
X0344685Y0149450D02*
X0344685Y0150451D01*
X0344184Y0150951D01*
X0343684Y0150451D01*
X0343684Y0149450D01*
X0343211Y0149450D02*
X0343211Y0150951D01*
X0342711Y0150451D01*
X0342210Y0150951D01*
X0342210Y0149450D01*
X0343684Y0150201D02*
X0344685Y0150201D01*
X0345157Y0150451D02*
X0345407Y0150201D01*
X0345908Y0150201D01*
X0346158Y0149950D01*
X0346158Y0149700D01*
X0346158Y0150701D02*
X0345908Y0150951D01*
X0345407Y0150951D01*
X0345157Y0150701D01*
X0345157Y0150451D01*
X0368684Y0150451D02*
X0368934Y0150201D01*
X0369434Y0150201D01*
X0369685Y0149950D01*
X0369685Y0149700D01*
X0369434Y0149450D01*
X0368934Y0149450D01*
X0368684Y0149700D01*
X0368684Y0150451D02*
X0368684Y0150701D01*
X0368934Y0150951D01*
X0369434Y0150951D01*
X0369685Y0150701D01*
X0370157Y0150951D02*
X0370157Y0149450D01*
X0371158Y0149450D01*
X0371630Y0149450D02*
X0371630Y0150451D01*
X0372131Y0150951D01*
X0372631Y0150451D01*
X0372631Y0149450D01*
X0373103Y0149950D02*
X0373604Y0149450D01*
X0374104Y0149950D01*
X0374104Y0150951D01*
X0374577Y0150951D02*
X0374577Y0149450D01*
X0375578Y0149450D01*
X0375077Y0150201D02*
X0374577Y0150201D01*
X0374577Y0150951D02*
X0375578Y0150951D01*
X0373103Y0150951D02*
X0373103Y0149950D01*
X0372631Y0150201D02*
X0371630Y0150201D01*
X0179417Y0142301D02*
X0179417Y0141801D01*
X0179167Y0141550D01*
X0178416Y0141550D01*
X0178416Y0141050D02*
X0178416Y0142551D01*
X0179167Y0142551D01*
X0179417Y0142301D01*
X0178917Y0141550D02*
X0179417Y0141050D01*
X0177944Y0141050D02*
X0176943Y0141050D01*
X0176943Y0142551D01*
X0177944Y0142551D01*
X0177443Y0141801D02*
X0176943Y0141801D01*
X0176471Y0142551D02*
X0175470Y0142551D01*
X0175970Y0142551D02*
X0175970Y0141050D01*
X0174997Y0141300D02*
X0174747Y0141050D01*
X0174247Y0141050D01*
X0173997Y0141300D01*
X0173524Y0141050D02*
X0173524Y0142051D01*
X0173024Y0142551D01*
X0172523Y0142051D01*
X0172523Y0141050D01*
X0172051Y0141050D02*
X0172051Y0142551D01*
X0171550Y0142051D01*
X0171050Y0142551D01*
X0171050Y0141050D01*
X0172523Y0141801D02*
X0173524Y0141801D01*
X0173997Y0142051D02*
X0174247Y0141801D01*
X0174747Y0141801D01*
X0174997Y0141550D01*
X0174997Y0141300D01*
X0174997Y0142301D02*
X0174747Y0142551D01*
X0174247Y0142551D01*
X0173997Y0142301D01*
X0173997Y0142051D01*
X0152944Y0142551D02*
X0151943Y0142551D01*
X0151943Y0141050D01*
X0152944Y0141050D01*
X0152443Y0141801D02*
X0151943Y0141801D01*
X0151471Y0141550D02*
X0150970Y0141050D01*
X0150470Y0141550D01*
X0150470Y0142551D01*
X0149997Y0142051D02*
X0149997Y0141050D01*
X0149997Y0141801D02*
X0148997Y0141801D01*
X0148997Y0142051D02*
X0149497Y0142551D01*
X0149997Y0142051D01*
X0148997Y0142051D02*
X0148997Y0141050D01*
X0148524Y0141050D02*
X0147523Y0141050D01*
X0147523Y0142551D01*
X0147051Y0142301D02*
X0146801Y0142551D01*
X0146300Y0142551D01*
X0146050Y0142301D01*
X0146050Y0142051D01*
X0146300Y0141801D01*
X0146801Y0141801D01*
X0147051Y0141550D01*
X0147051Y0141300D01*
X0146801Y0141050D01*
X0146300Y0141050D01*
X0146050Y0141300D01*
X0151471Y0141550D02*
X0151471Y0142551D01*
X0149167Y0062551D02*
X0149417Y0062301D01*
X0149417Y0061801D01*
X0149167Y0061550D01*
X0148416Y0061550D01*
X0148416Y0061050D02*
X0148416Y0062551D01*
X0149167Y0062551D01*
X0148917Y0061550D02*
X0149417Y0061050D01*
X0147944Y0061050D02*
X0146943Y0061050D01*
X0146943Y0062551D01*
X0147944Y0062551D01*
X0147443Y0061801D02*
X0146943Y0061801D01*
X0146471Y0062551D02*
X0145470Y0062551D01*
X0145970Y0062551D02*
X0145970Y0061050D01*
X0144997Y0061300D02*
X0144747Y0061050D01*
X0144247Y0061050D01*
X0143997Y0061300D01*
X0143524Y0061050D02*
X0143524Y0062051D01*
X0143024Y0062551D01*
X0142523Y0062051D01*
X0142523Y0061050D01*
X0142051Y0061050D02*
X0142051Y0062551D01*
X0141550Y0062051D01*
X0141050Y0062551D01*
X0141050Y0061050D01*
X0142523Y0061801D02*
X0143524Y0061801D01*
X0143997Y0062051D02*
X0144247Y0061801D01*
X0144747Y0061801D01*
X0144997Y0061550D01*
X0144997Y0061300D01*
X0144997Y0062301D02*
X0144747Y0062551D01*
X0144247Y0062551D01*
X0143997Y0062301D01*
X0143997Y0062051D01*
X0122944Y0062551D02*
X0121943Y0062551D01*
X0121943Y0061050D01*
X0122944Y0061050D01*
X0122443Y0061801D02*
X0121943Y0061801D01*
X0121471Y0061550D02*
X0121471Y0062551D01*
X0121471Y0061550D02*
X0120970Y0061050D01*
X0120470Y0061550D01*
X0120470Y0062551D01*
X0119997Y0062051D02*
X0119997Y0061050D01*
X0119997Y0061801D02*
X0118997Y0061801D01*
X0118997Y0062051D02*
X0119497Y0062551D01*
X0119997Y0062051D01*
X0118997Y0062051D02*
X0118997Y0061050D01*
X0118524Y0061050D02*
X0117523Y0061050D01*
X0117523Y0062551D01*
X0117051Y0062301D02*
X0116801Y0062551D01*
X0116300Y0062551D01*
X0116050Y0062301D01*
X0116050Y0062051D01*
X0116300Y0061801D01*
X0116801Y0061801D01*
X0117051Y0061550D01*
X0117051Y0061300D01*
X0116801Y0061050D01*
X0116300Y0061050D01*
X0116050Y0061300D01*
D12*
X0246196Y0061967D02*
X0246963Y0061200D01*
X0247731Y0061200D01*
X0248498Y0061967D01*
X0248498Y0063502D01*
X0249265Y0064269D01*
X0250033Y0064269D01*
X0250800Y0063502D01*
X0250800Y0061967D01*
X0250033Y0061200D01*
X0246196Y0061967D02*
X0246196Y0063502D01*
X0246963Y0064269D01*
X0246196Y0065804D02*
X0250800Y0065804D01*
X0249265Y0067339D01*
X0250800Y0068873D01*
X0246196Y0068873D01*
X0246196Y0070408D02*
X0246196Y0072710D01*
X0246963Y0073477D01*
X0250033Y0073477D01*
X0250800Y0072710D01*
X0250800Y0070408D01*
X0246196Y0070408D01*
D13*
X0034345Y0070136D02*
X0034345Y0076275D01*
X0034345Y0073205D02*
X0025137Y0073205D01*
X0028207Y0070136D01*
X0026672Y0067067D02*
X0032811Y0060928D01*
X0034345Y0062463D01*
X0034345Y0065532D01*
X0032811Y0067067D01*
X0026672Y0067067D01*
X0025137Y0065532D01*
X0025137Y0062463D01*
X0026672Y0060928D01*
X0032811Y0060928D01*
X0029741Y0057859D02*
X0029741Y0051720D01*
X0029741Y0048651D02*
X0031276Y0047117D01*
X0031276Y0042513D01*
X0034345Y0042513D02*
X0025137Y0042513D01*
X0025137Y0047117D01*
X0026672Y0048651D01*
X0029741Y0048651D01*
X0031276Y0039443D02*
X0032811Y0039443D01*
X0034345Y0037909D01*
X0034345Y0034839D01*
X0032811Y0033305D01*
X0029741Y0034839D02*
X0029741Y0037909D01*
X0031276Y0039443D01*
X0026672Y0039443D02*
X0025137Y0037909D01*
X0025137Y0034839D01*
X0026672Y0033305D01*
X0028207Y0033305D01*
X0029741Y0034839D01*
X0025137Y0030235D02*
X0025137Y0024097D01*
X0034345Y0024097D01*
X0034345Y0030235D01*
X0029741Y0027166D02*
X0029741Y0024097D01*
D14*
X0075000Y0096500D02*
X0087000Y0096500D01*
X0090000Y0099500D01*
X0090000Y0114000D01*
X0089998Y0114076D01*
X0089992Y0114152D01*
X0089983Y0114227D01*
X0089969Y0114302D01*
X0089952Y0114376D01*
X0089931Y0114449D01*
X0089907Y0114521D01*
X0089878Y0114592D01*
X0089847Y0114661D01*
X0089812Y0114728D01*
X0089773Y0114793D01*
X0089731Y0114857D01*
X0089686Y0114918D01*
X0089638Y0114977D01*
X0089587Y0115033D01*
X0089533Y0115087D01*
X0089477Y0115138D01*
X0089418Y0115186D01*
X0089357Y0115231D01*
X0089293Y0115273D01*
X0089228Y0115312D01*
X0089161Y0115347D01*
X0089092Y0115378D01*
X0089021Y0115407D01*
X0088949Y0115431D01*
X0088876Y0115452D01*
X0088802Y0115469D01*
X0088727Y0115483D01*
X0088652Y0115492D01*
X0088576Y0115498D01*
X0088500Y0115500D01*
X0073500Y0115500D01*
X0073424Y0115498D01*
X0073348Y0115492D01*
X0073273Y0115483D01*
X0073198Y0115469D01*
X0073124Y0115452D01*
X0073051Y0115431D01*
X0072979Y0115407D01*
X0072908Y0115378D01*
X0072839Y0115347D01*
X0072772Y0115312D01*
X0072707Y0115273D01*
X0072643Y0115231D01*
X0072582Y0115186D01*
X0072523Y0115138D01*
X0072467Y0115087D01*
X0072413Y0115033D01*
X0072362Y0114977D01*
X0072314Y0114918D01*
X0072269Y0114857D01*
X0072227Y0114793D01*
X0072188Y0114728D01*
X0072153Y0114661D01*
X0072122Y0114592D01*
X0072093Y0114521D01*
X0072069Y0114449D01*
X0072048Y0114376D01*
X0072031Y0114302D01*
X0072017Y0114227D01*
X0072008Y0114152D01*
X0072002Y0114076D01*
X0072000Y0114000D01*
X0072000Y0099500D01*
X0075000Y0096500D01*
X0075600Y0097700D02*
X0075600Y0100300D01*
X0074400Y0099000D02*
X0076900Y0099000D01*
X0176500Y0234500D02*
X0176500Y0236000D01*
X0177000Y0236500D01*
X0177000Y0255500D01*
X0176500Y0256000D01*
X0176500Y0257500D01*
X0176502Y0257560D01*
X0176507Y0257621D01*
X0176516Y0257680D01*
X0176529Y0257739D01*
X0176545Y0257798D01*
X0176565Y0257855D01*
X0176588Y0257910D01*
X0176615Y0257965D01*
X0176644Y0258017D01*
X0176677Y0258068D01*
X0176713Y0258117D01*
X0176751Y0258163D01*
X0176793Y0258207D01*
X0176837Y0258249D01*
X0176883Y0258287D01*
X0176932Y0258323D01*
X0176983Y0258356D01*
X0177035Y0258385D01*
X0177090Y0258412D01*
X0177145Y0258435D01*
X0177202Y0258455D01*
X0177261Y0258471D01*
X0177320Y0258484D01*
X0177379Y0258493D01*
X0177440Y0258498D01*
X0177500Y0258500D01*
X0184500Y0258500D02*
X0184560Y0258498D01*
X0184621Y0258493D01*
X0184680Y0258484D01*
X0184739Y0258471D01*
X0184798Y0258455D01*
X0184855Y0258435D01*
X0184910Y0258412D01*
X0184965Y0258385D01*
X0185017Y0258356D01*
X0185068Y0258323D01*
X0185117Y0258287D01*
X0185163Y0258249D01*
X0185207Y0258207D01*
X0185249Y0258163D01*
X0185287Y0258117D01*
X0185323Y0258068D01*
X0185356Y0258017D01*
X0185385Y0257965D01*
X0185412Y0257910D01*
X0185435Y0257855D01*
X0185455Y0257798D01*
X0185471Y0257739D01*
X0185484Y0257680D01*
X0185493Y0257621D01*
X0185498Y0257560D01*
X0185500Y0257500D01*
X0185500Y0256000D01*
X0185000Y0255500D01*
X0185000Y0236500D01*
X0185500Y0236000D01*
X0185500Y0234500D01*
X0185498Y0234440D01*
X0185493Y0234379D01*
X0185484Y0234320D01*
X0185471Y0234261D01*
X0185455Y0234202D01*
X0185435Y0234145D01*
X0185412Y0234090D01*
X0185385Y0234035D01*
X0185356Y0233983D01*
X0185323Y0233932D01*
X0185287Y0233883D01*
X0185249Y0233837D01*
X0185207Y0233793D01*
X0185163Y0233751D01*
X0185117Y0233713D01*
X0185068Y0233677D01*
X0185017Y0233644D01*
X0184965Y0233615D01*
X0184910Y0233588D01*
X0184855Y0233565D01*
X0184798Y0233545D01*
X0184739Y0233529D01*
X0184680Y0233516D01*
X0184621Y0233507D01*
X0184560Y0233502D01*
X0184500Y0233500D01*
X0177500Y0233500D02*
X0177440Y0233502D01*
X0177379Y0233507D01*
X0177320Y0233516D01*
X0177261Y0233529D01*
X0177202Y0233545D01*
X0177145Y0233565D01*
X0177090Y0233588D01*
X0177035Y0233615D01*
X0176983Y0233644D01*
X0176932Y0233677D01*
X0176883Y0233713D01*
X0176837Y0233751D01*
X0176793Y0233793D01*
X0176751Y0233837D01*
X0176713Y0233883D01*
X0176677Y0233932D01*
X0176644Y0233983D01*
X0176615Y0234035D01*
X0176588Y0234090D01*
X0176565Y0234145D01*
X0176545Y0234202D01*
X0176529Y0234261D01*
X0176516Y0234320D01*
X0176507Y0234379D01*
X0176502Y0234440D01*
X0176500Y0234500D01*
X0191500Y0234500D02*
X0191500Y0236000D01*
X0192000Y0236500D01*
X0192000Y0255500D01*
X0191500Y0256000D01*
X0191500Y0257500D01*
X0191502Y0257560D01*
X0191507Y0257621D01*
X0191516Y0257680D01*
X0191529Y0257739D01*
X0191545Y0257798D01*
X0191565Y0257855D01*
X0191588Y0257910D01*
X0191615Y0257965D01*
X0191644Y0258017D01*
X0191677Y0258068D01*
X0191713Y0258117D01*
X0191751Y0258163D01*
X0191793Y0258207D01*
X0191837Y0258249D01*
X0191883Y0258287D01*
X0191932Y0258323D01*
X0191983Y0258356D01*
X0192035Y0258385D01*
X0192090Y0258412D01*
X0192145Y0258435D01*
X0192202Y0258455D01*
X0192261Y0258471D01*
X0192320Y0258484D01*
X0192379Y0258493D01*
X0192440Y0258498D01*
X0192500Y0258500D01*
X0199500Y0258500D02*
X0199560Y0258498D01*
X0199621Y0258493D01*
X0199680Y0258484D01*
X0199739Y0258471D01*
X0199798Y0258455D01*
X0199855Y0258435D01*
X0199910Y0258412D01*
X0199965Y0258385D01*
X0200017Y0258356D01*
X0200068Y0258323D01*
X0200117Y0258287D01*
X0200163Y0258249D01*
X0200207Y0258207D01*
X0200249Y0258163D01*
X0200287Y0258117D01*
X0200323Y0258068D01*
X0200356Y0258017D01*
X0200385Y0257965D01*
X0200412Y0257910D01*
X0200435Y0257855D01*
X0200455Y0257798D01*
X0200471Y0257739D01*
X0200484Y0257680D01*
X0200493Y0257621D01*
X0200498Y0257560D01*
X0200500Y0257500D01*
X0200500Y0256000D01*
X0200000Y0255500D01*
X0200000Y0236500D01*
X0200500Y0236000D01*
X0200500Y0234500D01*
X0200498Y0234440D01*
X0200493Y0234379D01*
X0200484Y0234320D01*
X0200471Y0234261D01*
X0200455Y0234202D01*
X0200435Y0234145D01*
X0200412Y0234090D01*
X0200385Y0234035D01*
X0200356Y0233983D01*
X0200323Y0233932D01*
X0200287Y0233883D01*
X0200249Y0233837D01*
X0200207Y0233793D01*
X0200163Y0233751D01*
X0200117Y0233713D01*
X0200068Y0233677D01*
X0200017Y0233644D01*
X0199965Y0233615D01*
X0199910Y0233588D01*
X0199855Y0233565D01*
X0199798Y0233545D01*
X0199739Y0233529D01*
X0199680Y0233516D01*
X0199621Y0233507D01*
X0199560Y0233502D01*
X0199500Y0233500D01*
X0192500Y0233500D02*
X0192440Y0233502D01*
X0192379Y0233507D01*
X0192320Y0233516D01*
X0192261Y0233529D01*
X0192202Y0233545D01*
X0192145Y0233565D01*
X0192090Y0233588D01*
X0192035Y0233615D01*
X0191983Y0233644D01*
X0191932Y0233677D01*
X0191883Y0233713D01*
X0191837Y0233751D01*
X0191793Y0233793D01*
X0191751Y0233837D01*
X0191713Y0233883D01*
X0191677Y0233932D01*
X0191644Y0233983D01*
X0191615Y0234035D01*
X0191588Y0234090D01*
X0191565Y0234145D01*
X0191545Y0234202D01*
X0191529Y0234261D01*
X0191516Y0234320D01*
X0191507Y0234379D01*
X0191502Y0234440D01*
X0191500Y0234500D01*
X0294500Y0195500D02*
X0296000Y0195500D01*
X0296500Y0195000D01*
X0315500Y0195000D01*
X0316000Y0195500D01*
X0317500Y0195500D01*
X0317560Y0195498D01*
X0317621Y0195493D01*
X0317680Y0195484D01*
X0317739Y0195471D01*
X0317798Y0195455D01*
X0317855Y0195435D01*
X0317910Y0195412D01*
X0317965Y0195385D01*
X0318017Y0195356D01*
X0318068Y0195323D01*
X0318117Y0195287D01*
X0318163Y0195249D01*
X0318207Y0195207D01*
X0318249Y0195163D01*
X0318287Y0195117D01*
X0318323Y0195068D01*
X0318356Y0195017D01*
X0318385Y0194965D01*
X0318412Y0194910D01*
X0318435Y0194855D01*
X0318455Y0194798D01*
X0318471Y0194739D01*
X0318484Y0194680D01*
X0318493Y0194621D01*
X0318498Y0194560D01*
X0318500Y0194500D01*
X0318500Y0187500D02*
X0318498Y0187440D01*
X0318493Y0187379D01*
X0318484Y0187320D01*
X0318471Y0187261D01*
X0318455Y0187202D01*
X0318435Y0187145D01*
X0318412Y0187090D01*
X0318385Y0187035D01*
X0318356Y0186983D01*
X0318323Y0186932D01*
X0318287Y0186883D01*
X0318249Y0186837D01*
X0318207Y0186793D01*
X0318163Y0186751D01*
X0318117Y0186713D01*
X0318068Y0186677D01*
X0318017Y0186644D01*
X0317965Y0186615D01*
X0317910Y0186588D01*
X0317855Y0186565D01*
X0317798Y0186545D01*
X0317739Y0186529D01*
X0317680Y0186516D01*
X0317621Y0186507D01*
X0317560Y0186502D01*
X0317500Y0186500D01*
X0316000Y0186500D01*
X0315500Y0187000D01*
X0296500Y0187000D01*
X0296000Y0186500D01*
X0294500Y0186500D01*
X0294440Y0186502D01*
X0294379Y0186507D01*
X0294320Y0186516D01*
X0294261Y0186529D01*
X0294202Y0186545D01*
X0294145Y0186565D01*
X0294090Y0186588D01*
X0294035Y0186615D01*
X0293983Y0186644D01*
X0293932Y0186677D01*
X0293883Y0186713D01*
X0293837Y0186751D01*
X0293793Y0186793D01*
X0293751Y0186837D01*
X0293713Y0186883D01*
X0293677Y0186932D01*
X0293644Y0186983D01*
X0293615Y0187035D01*
X0293588Y0187090D01*
X0293565Y0187145D01*
X0293545Y0187202D01*
X0293529Y0187261D01*
X0293516Y0187320D01*
X0293507Y0187379D01*
X0293502Y0187440D01*
X0293500Y0187500D01*
X0294500Y0185500D02*
X0296000Y0185500D01*
X0296500Y0185000D01*
X0315500Y0185000D01*
X0316000Y0185500D01*
X0317500Y0185500D01*
X0317560Y0185498D01*
X0317621Y0185493D01*
X0317680Y0185484D01*
X0317739Y0185471D01*
X0317798Y0185455D01*
X0317855Y0185435D01*
X0317910Y0185412D01*
X0317965Y0185385D01*
X0318017Y0185356D01*
X0318068Y0185323D01*
X0318117Y0185287D01*
X0318163Y0185249D01*
X0318207Y0185207D01*
X0318249Y0185163D01*
X0318287Y0185117D01*
X0318323Y0185068D01*
X0318356Y0185017D01*
X0318385Y0184965D01*
X0318412Y0184910D01*
X0318435Y0184855D01*
X0318455Y0184798D01*
X0318471Y0184739D01*
X0318484Y0184680D01*
X0318493Y0184621D01*
X0318498Y0184560D01*
X0318500Y0184500D01*
X0318500Y0177500D02*
X0318498Y0177440D01*
X0318493Y0177379D01*
X0318484Y0177320D01*
X0318471Y0177261D01*
X0318455Y0177202D01*
X0318435Y0177145D01*
X0318412Y0177090D01*
X0318385Y0177035D01*
X0318356Y0176983D01*
X0318323Y0176932D01*
X0318287Y0176883D01*
X0318249Y0176837D01*
X0318207Y0176793D01*
X0318163Y0176751D01*
X0318117Y0176713D01*
X0318068Y0176677D01*
X0318017Y0176644D01*
X0317965Y0176615D01*
X0317910Y0176588D01*
X0317855Y0176565D01*
X0317798Y0176545D01*
X0317739Y0176529D01*
X0317680Y0176516D01*
X0317621Y0176507D01*
X0317560Y0176502D01*
X0317500Y0176500D01*
X0316000Y0176500D01*
X0315500Y0177000D01*
X0296500Y0177000D01*
X0296000Y0176500D01*
X0294500Y0176500D01*
X0294440Y0176502D01*
X0294379Y0176507D01*
X0294320Y0176516D01*
X0294261Y0176529D01*
X0294202Y0176545D01*
X0294145Y0176565D01*
X0294090Y0176588D01*
X0294035Y0176615D01*
X0293983Y0176644D01*
X0293932Y0176677D01*
X0293883Y0176713D01*
X0293837Y0176751D01*
X0293793Y0176793D01*
X0293751Y0176837D01*
X0293713Y0176883D01*
X0293677Y0176932D01*
X0293644Y0176983D01*
X0293615Y0177035D01*
X0293588Y0177090D01*
X0293565Y0177145D01*
X0293545Y0177202D01*
X0293529Y0177261D01*
X0293516Y0177320D01*
X0293507Y0177379D01*
X0293502Y0177440D01*
X0293500Y0177500D01*
X0293500Y0184500D02*
X0293502Y0184560D01*
X0293507Y0184621D01*
X0293516Y0184680D01*
X0293529Y0184739D01*
X0293545Y0184798D01*
X0293565Y0184855D01*
X0293588Y0184910D01*
X0293615Y0184965D01*
X0293644Y0185017D01*
X0293677Y0185068D01*
X0293713Y0185117D01*
X0293751Y0185163D01*
X0293793Y0185207D01*
X0293837Y0185249D01*
X0293883Y0185287D01*
X0293932Y0185323D01*
X0293983Y0185356D01*
X0294035Y0185385D01*
X0294090Y0185412D01*
X0294145Y0185435D01*
X0294202Y0185455D01*
X0294261Y0185471D01*
X0294320Y0185484D01*
X0294379Y0185493D01*
X0294440Y0185498D01*
X0294500Y0185500D01*
X0293500Y0194500D02*
X0293502Y0194560D01*
X0293507Y0194621D01*
X0293516Y0194680D01*
X0293529Y0194739D01*
X0293545Y0194798D01*
X0293565Y0194855D01*
X0293588Y0194910D01*
X0293615Y0194965D01*
X0293644Y0195017D01*
X0293677Y0195068D01*
X0293713Y0195117D01*
X0293751Y0195163D01*
X0293793Y0195207D01*
X0293837Y0195249D01*
X0293883Y0195287D01*
X0293932Y0195323D01*
X0293983Y0195356D01*
X0294035Y0195385D01*
X0294090Y0195412D01*
X0294145Y0195435D01*
X0294202Y0195455D01*
X0294261Y0195471D01*
X0294320Y0195484D01*
X0294379Y0195493D01*
X0294440Y0195498D01*
X0294500Y0195500D01*
X0304500Y0095500D02*
X0306000Y0095500D01*
X0306500Y0095000D01*
X0325500Y0095000D01*
X0326000Y0095500D01*
X0327500Y0095500D01*
X0327560Y0095498D01*
X0327621Y0095493D01*
X0327680Y0095484D01*
X0327739Y0095471D01*
X0327798Y0095455D01*
X0327855Y0095435D01*
X0327910Y0095412D01*
X0327965Y0095385D01*
X0328017Y0095356D01*
X0328068Y0095323D01*
X0328117Y0095287D01*
X0328163Y0095249D01*
X0328207Y0095207D01*
X0328249Y0095163D01*
X0328287Y0095117D01*
X0328323Y0095068D01*
X0328356Y0095017D01*
X0328385Y0094965D01*
X0328412Y0094910D01*
X0328435Y0094855D01*
X0328455Y0094798D01*
X0328471Y0094739D01*
X0328484Y0094680D01*
X0328493Y0094621D01*
X0328498Y0094560D01*
X0328500Y0094500D01*
X0328500Y0087500D02*
X0328498Y0087440D01*
X0328493Y0087379D01*
X0328484Y0087320D01*
X0328471Y0087261D01*
X0328455Y0087202D01*
X0328435Y0087145D01*
X0328412Y0087090D01*
X0328385Y0087035D01*
X0328356Y0086983D01*
X0328323Y0086932D01*
X0328287Y0086883D01*
X0328249Y0086837D01*
X0328207Y0086793D01*
X0328163Y0086751D01*
X0328117Y0086713D01*
X0328068Y0086677D01*
X0328017Y0086644D01*
X0327965Y0086615D01*
X0327910Y0086588D01*
X0327855Y0086565D01*
X0327798Y0086545D01*
X0327739Y0086529D01*
X0327680Y0086516D01*
X0327621Y0086507D01*
X0327560Y0086502D01*
X0327500Y0086500D01*
X0326000Y0086500D01*
X0325500Y0087000D01*
X0306500Y0087000D01*
X0306000Y0086500D01*
X0304500Y0086500D01*
X0304440Y0086502D01*
X0304379Y0086507D01*
X0304320Y0086516D01*
X0304261Y0086529D01*
X0304202Y0086545D01*
X0304145Y0086565D01*
X0304090Y0086588D01*
X0304035Y0086615D01*
X0303983Y0086644D01*
X0303932Y0086677D01*
X0303883Y0086713D01*
X0303837Y0086751D01*
X0303793Y0086793D01*
X0303751Y0086837D01*
X0303713Y0086883D01*
X0303677Y0086932D01*
X0303644Y0086983D01*
X0303615Y0087035D01*
X0303588Y0087090D01*
X0303565Y0087145D01*
X0303545Y0087202D01*
X0303529Y0087261D01*
X0303516Y0087320D01*
X0303507Y0087379D01*
X0303502Y0087440D01*
X0303500Y0087500D01*
X0304500Y0085500D02*
X0306000Y0085500D01*
X0306500Y0085000D01*
X0325500Y0085000D01*
X0326000Y0085500D01*
X0327500Y0085500D01*
X0327560Y0085498D01*
X0327621Y0085493D01*
X0327680Y0085484D01*
X0327739Y0085471D01*
X0327798Y0085455D01*
X0327855Y0085435D01*
X0327910Y0085412D01*
X0327965Y0085385D01*
X0328017Y0085356D01*
X0328068Y0085323D01*
X0328117Y0085287D01*
X0328163Y0085249D01*
X0328207Y0085207D01*
X0328249Y0085163D01*
X0328287Y0085117D01*
X0328323Y0085068D01*
X0328356Y0085017D01*
X0328385Y0084965D01*
X0328412Y0084910D01*
X0328435Y0084855D01*
X0328455Y0084798D01*
X0328471Y0084739D01*
X0328484Y0084680D01*
X0328493Y0084621D01*
X0328498Y0084560D01*
X0328500Y0084500D01*
X0328500Y0077500D02*
X0328498Y0077440D01*
X0328493Y0077379D01*
X0328484Y0077320D01*
X0328471Y0077261D01*
X0328455Y0077202D01*
X0328435Y0077145D01*
X0328412Y0077090D01*
X0328385Y0077035D01*
X0328356Y0076983D01*
X0328323Y0076932D01*
X0328287Y0076883D01*
X0328249Y0076837D01*
X0328207Y0076793D01*
X0328163Y0076751D01*
X0328117Y0076713D01*
X0328068Y0076677D01*
X0328017Y0076644D01*
X0327965Y0076615D01*
X0327910Y0076588D01*
X0327855Y0076565D01*
X0327798Y0076545D01*
X0327739Y0076529D01*
X0327680Y0076516D01*
X0327621Y0076507D01*
X0327560Y0076502D01*
X0327500Y0076500D01*
X0326000Y0076500D01*
X0325500Y0077000D01*
X0306500Y0077000D01*
X0306000Y0076500D01*
X0304500Y0076500D01*
X0304440Y0076502D01*
X0304379Y0076507D01*
X0304320Y0076516D01*
X0304261Y0076529D01*
X0304202Y0076545D01*
X0304145Y0076565D01*
X0304090Y0076588D01*
X0304035Y0076615D01*
X0303983Y0076644D01*
X0303932Y0076677D01*
X0303883Y0076713D01*
X0303837Y0076751D01*
X0303793Y0076793D01*
X0303751Y0076837D01*
X0303713Y0076883D01*
X0303677Y0076932D01*
X0303644Y0076983D01*
X0303615Y0077035D01*
X0303588Y0077090D01*
X0303565Y0077145D01*
X0303545Y0077202D01*
X0303529Y0077261D01*
X0303516Y0077320D01*
X0303507Y0077379D01*
X0303502Y0077440D01*
X0303500Y0077500D01*
X0303500Y0084500D02*
X0303502Y0084560D01*
X0303507Y0084621D01*
X0303516Y0084680D01*
X0303529Y0084739D01*
X0303545Y0084798D01*
X0303565Y0084855D01*
X0303588Y0084910D01*
X0303615Y0084965D01*
X0303644Y0085017D01*
X0303677Y0085068D01*
X0303713Y0085117D01*
X0303751Y0085163D01*
X0303793Y0085207D01*
X0303837Y0085249D01*
X0303883Y0085287D01*
X0303932Y0085323D01*
X0303983Y0085356D01*
X0304035Y0085385D01*
X0304090Y0085412D01*
X0304145Y0085435D01*
X0304202Y0085455D01*
X0304261Y0085471D01*
X0304320Y0085484D01*
X0304379Y0085493D01*
X0304440Y0085498D01*
X0304500Y0085500D01*
X0303500Y0094500D02*
X0303502Y0094560D01*
X0303507Y0094621D01*
X0303516Y0094680D01*
X0303529Y0094739D01*
X0303545Y0094798D01*
X0303565Y0094855D01*
X0303588Y0094910D01*
X0303615Y0094965D01*
X0303644Y0095017D01*
X0303677Y0095068D01*
X0303713Y0095117D01*
X0303751Y0095163D01*
X0303793Y0095207D01*
X0303837Y0095249D01*
X0303883Y0095287D01*
X0303932Y0095323D01*
X0303983Y0095356D01*
X0304035Y0095385D01*
X0304090Y0095412D01*
X0304145Y0095435D01*
X0304202Y0095455D01*
X0304261Y0095471D01*
X0304320Y0095484D01*
X0304379Y0095493D01*
X0304440Y0095498D01*
X0304500Y0095500D01*
M02*
