%
M48
M72
T01C0.02362
T02C0.02756
T03C0.03150
T04C0.03200
T05C0.04000
%
T01
X120803Y31197
X191000Y81000
X181000Y91000
X171000Y96000
X186000Y101000
X176000Y111000
X196000Y121000
X211000Y131000
X181000Y161000
X186000Y171000
X191000Y181000
X201000Y191000
X176000Y251000
X311000Y151000
X301000Y141000
X321000Y141000
X301000Y111000
X296000Y101000
X311000Y91000
X321000Y91000
X351000Y91000
X341000Y26000
X211000Y26000
X201000Y71000
X341000Y181000
X346000Y191000
T02
X361000Y191000
X361000Y181000
X361000Y171000
X361000Y161000
X361000Y151000
X361000Y141000
X361000Y131000
X361000Y121000
X361000Y111000
X361000Y101000
X161000Y101000
X161000Y111000
X161000Y121000
X161000Y131000
X161000Y141000
X161000Y151000
X161000Y161000
X161000Y171000
X161000Y181000
X161000Y191000
X131000Y111000
X131000Y101000
X131000Y91000
X131000Y81000
X131000Y71000
X131000Y61000
X131000Y51000
X131000Y41000
X131000Y31000
X131000Y21000
T03
X95995Y31197
X105995Y31197
X105995Y41197
X95995Y41197
X95995Y51197
X105995Y51197
X105995Y61197
X95995Y61197
X231000Y51000
X241000Y51000
X251000Y51000
X261000Y51000
X271000Y51000
X271000Y41000
X251000Y41000
X241000Y41000
X231000Y41000
T04
X301000Y81000
X301000Y91000
X331000Y91000
X331000Y81000
X321000Y181000
X321000Y191000
X291000Y191000
X291000Y181000
X196000Y231000
X181000Y231000
X181000Y261000
X196000Y261000
X81000Y111000
X81000Y101000
T05
X221000Y101000
X221000Y91000
X221000Y81000
X221000Y71000
X221000Y111000
X221000Y121000
X221000Y131000
X221000Y141000
X221000Y151000
X221000Y161000
X221000Y171000
X221000Y181000
X221000Y191000
X221000Y201000
X221000Y211000
X221000Y221000
X221000Y231000
X221000Y241000
X221000Y251000
X221000Y261000
X281000Y261000
X281000Y251000
X281000Y241000
X281000Y231000
X281000Y221000
X281000Y211000
X281000Y201000
X281000Y191000
X281000Y181000
X281000Y171000
X281000Y161000
X281000Y151000
X281000Y141000
X281000Y131000
X281000Y121000
X281000Y111000
X281000Y101000
X281000Y91000
X281000Y81000
X281000Y71000
M30
