%
M48
M72
T01C0.02362
T02C0.02756
T03C0.03150
T04C0.03200
T05C0.03543
T06C0.11024
%
T01
X51000Y223000
X216000Y118000
X306000Y153000
X251000Y198000
X226000Y198000
X231000Y228000
T02
X231000Y18000
X241000Y18000
X251000Y18000
X261000Y18000
X271000Y18000
X281000Y18000
X291000Y18000
X301000Y18000
X311000Y18000
X321000Y18000
X321000Y248000
X311000Y248000
X301000Y248000
X291000Y248000
X281000Y248000
X271000Y248000
X261000Y248000
X251000Y248000
X241000Y248000
X231000Y248000
X131000Y248000
X121000Y248000
X111000Y248000
X101000Y248000
X91000Y248000
X81000Y248000
X71000Y248000
X61000Y248000
X51000Y248000
X41000Y248000
T03
X161000Y228000
X161000Y218000
X171000Y218000
X181000Y218000
X191000Y218000
X201000Y218000
X201000Y228000
X191000Y228000
X181000Y228000
T04
X271000Y208000
X281000Y208000
X281000Y238000
X271000Y238000
X366000Y98000
X376000Y98000
X376000Y68000
X366000Y68000
T05
X41000Y178000
X51000Y178000
X61000Y178000
X71000Y178000
X81000Y178000
X91000Y178000
X101000Y178000
X111000Y178000
X121000Y178000
X131000Y178000
X141000Y178000
X151000Y178000
X161000Y178000
X171000Y178000
X181000Y178000
X191000Y178000
X201000Y178000
X211000Y178000
X221000Y178000
X231000Y178000
X241000Y178000
X251000Y178000
X261000Y178000
X271000Y178000
X281000Y178000
X291000Y178000
X301000Y178000
X311000Y178000
X331000Y148000
X331000Y138000
X331000Y128000
X331000Y118000
X331000Y108000
X331000Y98000
X311000Y58000
X301000Y58000
X291000Y58000
X281000Y58000
X271000Y58000
X261000Y58000
X251000Y58000
X241000Y58000
X231000Y58000
X221000Y58000
X211000Y58000
X201000Y58000
X191000Y58000
X181000Y58000
X171000Y58000
X161000Y58000
X151000Y58000
X141000Y58000
X131000Y58000
X121000Y58000
X111000Y58000
X101000Y58000
X91000Y58000
X81000Y58000
X71000Y58000
X61000Y58000
X51000Y58000
X41000Y58000
T06
X16000Y243000
X16000Y23000
X371000Y23000
X371000Y243000
M30
