G75*
%MOIN*%
%OFA0B0*%
%FSLAX25Y25*%
%IPPOS*%
%LPD*%
%AMOC8*
5,1,8,0,0,1.08239X$1,22.5*
%
%ADD10C,0.00000*%
D10*
X0001000Y0008000D02*
X0001000Y0257961D01*
X0389701Y0257961D01*
X0389701Y0008000D01*
X0001000Y0008000D01*
X0010488Y0023000D02*
X0010490Y0023148D01*
X0010496Y0023296D01*
X0010506Y0023444D01*
X0010520Y0023591D01*
X0010538Y0023738D01*
X0010559Y0023884D01*
X0010585Y0024030D01*
X0010615Y0024175D01*
X0010648Y0024319D01*
X0010686Y0024462D01*
X0010727Y0024604D01*
X0010772Y0024745D01*
X0010820Y0024885D01*
X0010873Y0025024D01*
X0010929Y0025161D01*
X0010989Y0025296D01*
X0011052Y0025430D01*
X0011119Y0025562D01*
X0011190Y0025692D01*
X0011264Y0025820D01*
X0011341Y0025946D01*
X0011422Y0026070D01*
X0011506Y0026192D01*
X0011593Y0026311D01*
X0011684Y0026428D01*
X0011778Y0026543D01*
X0011874Y0026655D01*
X0011974Y0026765D01*
X0012076Y0026871D01*
X0012182Y0026975D01*
X0012290Y0027076D01*
X0012401Y0027174D01*
X0012514Y0027270D01*
X0012630Y0027362D01*
X0012748Y0027451D01*
X0012869Y0027536D01*
X0012992Y0027619D01*
X0013117Y0027698D01*
X0013244Y0027774D01*
X0013373Y0027846D01*
X0013504Y0027915D01*
X0013637Y0027980D01*
X0013772Y0028041D01*
X0013908Y0028099D01*
X0014045Y0028154D01*
X0014184Y0028204D01*
X0014325Y0028251D01*
X0014466Y0028294D01*
X0014609Y0028334D01*
X0014753Y0028369D01*
X0014897Y0028401D01*
X0015043Y0028428D01*
X0015189Y0028452D01*
X0015336Y0028472D01*
X0015483Y0028488D01*
X0015630Y0028500D01*
X0015778Y0028508D01*
X0015926Y0028512D01*
X0016074Y0028512D01*
X0016222Y0028508D01*
X0016370Y0028500D01*
X0016517Y0028488D01*
X0016664Y0028472D01*
X0016811Y0028452D01*
X0016957Y0028428D01*
X0017103Y0028401D01*
X0017247Y0028369D01*
X0017391Y0028334D01*
X0017534Y0028294D01*
X0017675Y0028251D01*
X0017816Y0028204D01*
X0017955Y0028154D01*
X0018092Y0028099D01*
X0018228Y0028041D01*
X0018363Y0027980D01*
X0018496Y0027915D01*
X0018627Y0027846D01*
X0018756Y0027774D01*
X0018883Y0027698D01*
X0019008Y0027619D01*
X0019131Y0027536D01*
X0019252Y0027451D01*
X0019370Y0027362D01*
X0019486Y0027270D01*
X0019599Y0027174D01*
X0019710Y0027076D01*
X0019818Y0026975D01*
X0019924Y0026871D01*
X0020026Y0026765D01*
X0020126Y0026655D01*
X0020222Y0026543D01*
X0020316Y0026428D01*
X0020407Y0026311D01*
X0020494Y0026192D01*
X0020578Y0026070D01*
X0020659Y0025946D01*
X0020736Y0025820D01*
X0020810Y0025692D01*
X0020881Y0025562D01*
X0020948Y0025430D01*
X0021011Y0025296D01*
X0021071Y0025161D01*
X0021127Y0025024D01*
X0021180Y0024885D01*
X0021228Y0024745D01*
X0021273Y0024604D01*
X0021314Y0024462D01*
X0021352Y0024319D01*
X0021385Y0024175D01*
X0021415Y0024030D01*
X0021441Y0023884D01*
X0021462Y0023738D01*
X0021480Y0023591D01*
X0021494Y0023444D01*
X0021504Y0023296D01*
X0021510Y0023148D01*
X0021512Y0023000D01*
X0021510Y0022852D01*
X0021504Y0022704D01*
X0021494Y0022556D01*
X0021480Y0022409D01*
X0021462Y0022262D01*
X0021441Y0022116D01*
X0021415Y0021970D01*
X0021385Y0021825D01*
X0021352Y0021681D01*
X0021314Y0021538D01*
X0021273Y0021396D01*
X0021228Y0021255D01*
X0021180Y0021115D01*
X0021127Y0020976D01*
X0021071Y0020839D01*
X0021011Y0020704D01*
X0020948Y0020570D01*
X0020881Y0020438D01*
X0020810Y0020308D01*
X0020736Y0020180D01*
X0020659Y0020054D01*
X0020578Y0019930D01*
X0020494Y0019808D01*
X0020407Y0019689D01*
X0020316Y0019572D01*
X0020222Y0019457D01*
X0020126Y0019345D01*
X0020026Y0019235D01*
X0019924Y0019129D01*
X0019818Y0019025D01*
X0019710Y0018924D01*
X0019599Y0018826D01*
X0019486Y0018730D01*
X0019370Y0018638D01*
X0019252Y0018549D01*
X0019131Y0018464D01*
X0019008Y0018381D01*
X0018883Y0018302D01*
X0018756Y0018226D01*
X0018627Y0018154D01*
X0018496Y0018085D01*
X0018363Y0018020D01*
X0018228Y0017959D01*
X0018092Y0017901D01*
X0017955Y0017846D01*
X0017816Y0017796D01*
X0017675Y0017749D01*
X0017534Y0017706D01*
X0017391Y0017666D01*
X0017247Y0017631D01*
X0017103Y0017599D01*
X0016957Y0017572D01*
X0016811Y0017548D01*
X0016664Y0017528D01*
X0016517Y0017512D01*
X0016370Y0017500D01*
X0016222Y0017492D01*
X0016074Y0017488D01*
X0015926Y0017488D01*
X0015778Y0017492D01*
X0015630Y0017500D01*
X0015483Y0017512D01*
X0015336Y0017528D01*
X0015189Y0017548D01*
X0015043Y0017572D01*
X0014897Y0017599D01*
X0014753Y0017631D01*
X0014609Y0017666D01*
X0014466Y0017706D01*
X0014325Y0017749D01*
X0014184Y0017796D01*
X0014045Y0017846D01*
X0013908Y0017901D01*
X0013772Y0017959D01*
X0013637Y0018020D01*
X0013504Y0018085D01*
X0013373Y0018154D01*
X0013244Y0018226D01*
X0013117Y0018302D01*
X0012992Y0018381D01*
X0012869Y0018464D01*
X0012748Y0018549D01*
X0012630Y0018638D01*
X0012514Y0018730D01*
X0012401Y0018826D01*
X0012290Y0018924D01*
X0012182Y0019025D01*
X0012076Y0019129D01*
X0011974Y0019235D01*
X0011874Y0019345D01*
X0011778Y0019457D01*
X0011684Y0019572D01*
X0011593Y0019689D01*
X0011506Y0019808D01*
X0011422Y0019930D01*
X0011341Y0020054D01*
X0011264Y0020180D01*
X0011190Y0020308D01*
X0011119Y0020438D01*
X0011052Y0020570D01*
X0010989Y0020704D01*
X0010929Y0020839D01*
X0010873Y0020976D01*
X0010820Y0021115D01*
X0010772Y0021255D01*
X0010727Y0021396D01*
X0010686Y0021538D01*
X0010648Y0021681D01*
X0010615Y0021825D01*
X0010585Y0021970D01*
X0010559Y0022116D01*
X0010538Y0022262D01*
X0010520Y0022409D01*
X0010506Y0022556D01*
X0010496Y0022704D01*
X0010490Y0022852D01*
X0010488Y0023000D01*
X0010488Y0243000D02*
X0010490Y0243148D01*
X0010496Y0243296D01*
X0010506Y0243444D01*
X0010520Y0243591D01*
X0010538Y0243738D01*
X0010559Y0243884D01*
X0010585Y0244030D01*
X0010615Y0244175D01*
X0010648Y0244319D01*
X0010686Y0244462D01*
X0010727Y0244604D01*
X0010772Y0244745D01*
X0010820Y0244885D01*
X0010873Y0245024D01*
X0010929Y0245161D01*
X0010989Y0245296D01*
X0011052Y0245430D01*
X0011119Y0245562D01*
X0011190Y0245692D01*
X0011264Y0245820D01*
X0011341Y0245946D01*
X0011422Y0246070D01*
X0011506Y0246192D01*
X0011593Y0246311D01*
X0011684Y0246428D01*
X0011778Y0246543D01*
X0011874Y0246655D01*
X0011974Y0246765D01*
X0012076Y0246871D01*
X0012182Y0246975D01*
X0012290Y0247076D01*
X0012401Y0247174D01*
X0012514Y0247270D01*
X0012630Y0247362D01*
X0012748Y0247451D01*
X0012869Y0247536D01*
X0012992Y0247619D01*
X0013117Y0247698D01*
X0013244Y0247774D01*
X0013373Y0247846D01*
X0013504Y0247915D01*
X0013637Y0247980D01*
X0013772Y0248041D01*
X0013908Y0248099D01*
X0014045Y0248154D01*
X0014184Y0248204D01*
X0014325Y0248251D01*
X0014466Y0248294D01*
X0014609Y0248334D01*
X0014753Y0248369D01*
X0014897Y0248401D01*
X0015043Y0248428D01*
X0015189Y0248452D01*
X0015336Y0248472D01*
X0015483Y0248488D01*
X0015630Y0248500D01*
X0015778Y0248508D01*
X0015926Y0248512D01*
X0016074Y0248512D01*
X0016222Y0248508D01*
X0016370Y0248500D01*
X0016517Y0248488D01*
X0016664Y0248472D01*
X0016811Y0248452D01*
X0016957Y0248428D01*
X0017103Y0248401D01*
X0017247Y0248369D01*
X0017391Y0248334D01*
X0017534Y0248294D01*
X0017675Y0248251D01*
X0017816Y0248204D01*
X0017955Y0248154D01*
X0018092Y0248099D01*
X0018228Y0248041D01*
X0018363Y0247980D01*
X0018496Y0247915D01*
X0018627Y0247846D01*
X0018756Y0247774D01*
X0018883Y0247698D01*
X0019008Y0247619D01*
X0019131Y0247536D01*
X0019252Y0247451D01*
X0019370Y0247362D01*
X0019486Y0247270D01*
X0019599Y0247174D01*
X0019710Y0247076D01*
X0019818Y0246975D01*
X0019924Y0246871D01*
X0020026Y0246765D01*
X0020126Y0246655D01*
X0020222Y0246543D01*
X0020316Y0246428D01*
X0020407Y0246311D01*
X0020494Y0246192D01*
X0020578Y0246070D01*
X0020659Y0245946D01*
X0020736Y0245820D01*
X0020810Y0245692D01*
X0020881Y0245562D01*
X0020948Y0245430D01*
X0021011Y0245296D01*
X0021071Y0245161D01*
X0021127Y0245024D01*
X0021180Y0244885D01*
X0021228Y0244745D01*
X0021273Y0244604D01*
X0021314Y0244462D01*
X0021352Y0244319D01*
X0021385Y0244175D01*
X0021415Y0244030D01*
X0021441Y0243884D01*
X0021462Y0243738D01*
X0021480Y0243591D01*
X0021494Y0243444D01*
X0021504Y0243296D01*
X0021510Y0243148D01*
X0021512Y0243000D01*
X0021510Y0242852D01*
X0021504Y0242704D01*
X0021494Y0242556D01*
X0021480Y0242409D01*
X0021462Y0242262D01*
X0021441Y0242116D01*
X0021415Y0241970D01*
X0021385Y0241825D01*
X0021352Y0241681D01*
X0021314Y0241538D01*
X0021273Y0241396D01*
X0021228Y0241255D01*
X0021180Y0241115D01*
X0021127Y0240976D01*
X0021071Y0240839D01*
X0021011Y0240704D01*
X0020948Y0240570D01*
X0020881Y0240438D01*
X0020810Y0240308D01*
X0020736Y0240180D01*
X0020659Y0240054D01*
X0020578Y0239930D01*
X0020494Y0239808D01*
X0020407Y0239689D01*
X0020316Y0239572D01*
X0020222Y0239457D01*
X0020126Y0239345D01*
X0020026Y0239235D01*
X0019924Y0239129D01*
X0019818Y0239025D01*
X0019710Y0238924D01*
X0019599Y0238826D01*
X0019486Y0238730D01*
X0019370Y0238638D01*
X0019252Y0238549D01*
X0019131Y0238464D01*
X0019008Y0238381D01*
X0018883Y0238302D01*
X0018756Y0238226D01*
X0018627Y0238154D01*
X0018496Y0238085D01*
X0018363Y0238020D01*
X0018228Y0237959D01*
X0018092Y0237901D01*
X0017955Y0237846D01*
X0017816Y0237796D01*
X0017675Y0237749D01*
X0017534Y0237706D01*
X0017391Y0237666D01*
X0017247Y0237631D01*
X0017103Y0237599D01*
X0016957Y0237572D01*
X0016811Y0237548D01*
X0016664Y0237528D01*
X0016517Y0237512D01*
X0016370Y0237500D01*
X0016222Y0237492D01*
X0016074Y0237488D01*
X0015926Y0237488D01*
X0015778Y0237492D01*
X0015630Y0237500D01*
X0015483Y0237512D01*
X0015336Y0237528D01*
X0015189Y0237548D01*
X0015043Y0237572D01*
X0014897Y0237599D01*
X0014753Y0237631D01*
X0014609Y0237666D01*
X0014466Y0237706D01*
X0014325Y0237749D01*
X0014184Y0237796D01*
X0014045Y0237846D01*
X0013908Y0237901D01*
X0013772Y0237959D01*
X0013637Y0238020D01*
X0013504Y0238085D01*
X0013373Y0238154D01*
X0013244Y0238226D01*
X0013117Y0238302D01*
X0012992Y0238381D01*
X0012869Y0238464D01*
X0012748Y0238549D01*
X0012630Y0238638D01*
X0012514Y0238730D01*
X0012401Y0238826D01*
X0012290Y0238924D01*
X0012182Y0239025D01*
X0012076Y0239129D01*
X0011974Y0239235D01*
X0011874Y0239345D01*
X0011778Y0239457D01*
X0011684Y0239572D01*
X0011593Y0239689D01*
X0011506Y0239808D01*
X0011422Y0239930D01*
X0011341Y0240054D01*
X0011264Y0240180D01*
X0011190Y0240308D01*
X0011119Y0240438D01*
X0011052Y0240570D01*
X0010989Y0240704D01*
X0010929Y0240839D01*
X0010873Y0240976D01*
X0010820Y0241115D01*
X0010772Y0241255D01*
X0010727Y0241396D01*
X0010686Y0241538D01*
X0010648Y0241681D01*
X0010615Y0241825D01*
X0010585Y0241970D01*
X0010559Y0242116D01*
X0010538Y0242262D01*
X0010520Y0242409D01*
X0010506Y0242556D01*
X0010496Y0242704D01*
X0010490Y0242852D01*
X0010488Y0243000D01*
X0365488Y0243000D02*
X0365490Y0243148D01*
X0365496Y0243296D01*
X0365506Y0243444D01*
X0365520Y0243591D01*
X0365538Y0243738D01*
X0365559Y0243884D01*
X0365585Y0244030D01*
X0365615Y0244175D01*
X0365648Y0244319D01*
X0365686Y0244462D01*
X0365727Y0244604D01*
X0365772Y0244745D01*
X0365820Y0244885D01*
X0365873Y0245024D01*
X0365929Y0245161D01*
X0365989Y0245296D01*
X0366052Y0245430D01*
X0366119Y0245562D01*
X0366190Y0245692D01*
X0366264Y0245820D01*
X0366341Y0245946D01*
X0366422Y0246070D01*
X0366506Y0246192D01*
X0366593Y0246311D01*
X0366684Y0246428D01*
X0366778Y0246543D01*
X0366874Y0246655D01*
X0366974Y0246765D01*
X0367076Y0246871D01*
X0367182Y0246975D01*
X0367290Y0247076D01*
X0367401Y0247174D01*
X0367514Y0247270D01*
X0367630Y0247362D01*
X0367748Y0247451D01*
X0367869Y0247536D01*
X0367992Y0247619D01*
X0368117Y0247698D01*
X0368244Y0247774D01*
X0368373Y0247846D01*
X0368504Y0247915D01*
X0368637Y0247980D01*
X0368772Y0248041D01*
X0368908Y0248099D01*
X0369045Y0248154D01*
X0369184Y0248204D01*
X0369325Y0248251D01*
X0369466Y0248294D01*
X0369609Y0248334D01*
X0369753Y0248369D01*
X0369897Y0248401D01*
X0370043Y0248428D01*
X0370189Y0248452D01*
X0370336Y0248472D01*
X0370483Y0248488D01*
X0370630Y0248500D01*
X0370778Y0248508D01*
X0370926Y0248512D01*
X0371074Y0248512D01*
X0371222Y0248508D01*
X0371370Y0248500D01*
X0371517Y0248488D01*
X0371664Y0248472D01*
X0371811Y0248452D01*
X0371957Y0248428D01*
X0372103Y0248401D01*
X0372247Y0248369D01*
X0372391Y0248334D01*
X0372534Y0248294D01*
X0372675Y0248251D01*
X0372816Y0248204D01*
X0372955Y0248154D01*
X0373092Y0248099D01*
X0373228Y0248041D01*
X0373363Y0247980D01*
X0373496Y0247915D01*
X0373627Y0247846D01*
X0373756Y0247774D01*
X0373883Y0247698D01*
X0374008Y0247619D01*
X0374131Y0247536D01*
X0374252Y0247451D01*
X0374370Y0247362D01*
X0374486Y0247270D01*
X0374599Y0247174D01*
X0374710Y0247076D01*
X0374818Y0246975D01*
X0374924Y0246871D01*
X0375026Y0246765D01*
X0375126Y0246655D01*
X0375222Y0246543D01*
X0375316Y0246428D01*
X0375407Y0246311D01*
X0375494Y0246192D01*
X0375578Y0246070D01*
X0375659Y0245946D01*
X0375736Y0245820D01*
X0375810Y0245692D01*
X0375881Y0245562D01*
X0375948Y0245430D01*
X0376011Y0245296D01*
X0376071Y0245161D01*
X0376127Y0245024D01*
X0376180Y0244885D01*
X0376228Y0244745D01*
X0376273Y0244604D01*
X0376314Y0244462D01*
X0376352Y0244319D01*
X0376385Y0244175D01*
X0376415Y0244030D01*
X0376441Y0243884D01*
X0376462Y0243738D01*
X0376480Y0243591D01*
X0376494Y0243444D01*
X0376504Y0243296D01*
X0376510Y0243148D01*
X0376512Y0243000D01*
X0376510Y0242852D01*
X0376504Y0242704D01*
X0376494Y0242556D01*
X0376480Y0242409D01*
X0376462Y0242262D01*
X0376441Y0242116D01*
X0376415Y0241970D01*
X0376385Y0241825D01*
X0376352Y0241681D01*
X0376314Y0241538D01*
X0376273Y0241396D01*
X0376228Y0241255D01*
X0376180Y0241115D01*
X0376127Y0240976D01*
X0376071Y0240839D01*
X0376011Y0240704D01*
X0375948Y0240570D01*
X0375881Y0240438D01*
X0375810Y0240308D01*
X0375736Y0240180D01*
X0375659Y0240054D01*
X0375578Y0239930D01*
X0375494Y0239808D01*
X0375407Y0239689D01*
X0375316Y0239572D01*
X0375222Y0239457D01*
X0375126Y0239345D01*
X0375026Y0239235D01*
X0374924Y0239129D01*
X0374818Y0239025D01*
X0374710Y0238924D01*
X0374599Y0238826D01*
X0374486Y0238730D01*
X0374370Y0238638D01*
X0374252Y0238549D01*
X0374131Y0238464D01*
X0374008Y0238381D01*
X0373883Y0238302D01*
X0373756Y0238226D01*
X0373627Y0238154D01*
X0373496Y0238085D01*
X0373363Y0238020D01*
X0373228Y0237959D01*
X0373092Y0237901D01*
X0372955Y0237846D01*
X0372816Y0237796D01*
X0372675Y0237749D01*
X0372534Y0237706D01*
X0372391Y0237666D01*
X0372247Y0237631D01*
X0372103Y0237599D01*
X0371957Y0237572D01*
X0371811Y0237548D01*
X0371664Y0237528D01*
X0371517Y0237512D01*
X0371370Y0237500D01*
X0371222Y0237492D01*
X0371074Y0237488D01*
X0370926Y0237488D01*
X0370778Y0237492D01*
X0370630Y0237500D01*
X0370483Y0237512D01*
X0370336Y0237528D01*
X0370189Y0237548D01*
X0370043Y0237572D01*
X0369897Y0237599D01*
X0369753Y0237631D01*
X0369609Y0237666D01*
X0369466Y0237706D01*
X0369325Y0237749D01*
X0369184Y0237796D01*
X0369045Y0237846D01*
X0368908Y0237901D01*
X0368772Y0237959D01*
X0368637Y0238020D01*
X0368504Y0238085D01*
X0368373Y0238154D01*
X0368244Y0238226D01*
X0368117Y0238302D01*
X0367992Y0238381D01*
X0367869Y0238464D01*
X0367748Y0238549D01*
X0367630Y0238638D01*
X0367514Y0238730D01*
X0367401Y0238826D01*
X0367290Y0238924D01*
X0367182Y0239025D01*
X0367076Y0239129D01*
X0366974Y0239235D01*
X0366874Y0239345D01*
X0366778Y0239457D01*
X0366684Y0239572D01*
X0366593Y0239689D01*
X0366506Y0239808D01*
X0366422Y0239930D01*
X0366341Y0240054D01*
X0366264Y0240180D01*
X0366190Y0240308D01*
X0366119Y0240438D01*
X0366052Y0240570D01*
X0365989Y0240704D01*
X0365929Y0240839D01*
X0365873Y0240976D01*
X0365820Y0241115D01*
X0365772Y0241255D01*
X0365727Y0241396D01*
X0365686Y0241538D01*
X0365648Y0241681D01*
X0365615Y0241825D01*
X0365585Y0241970D01*
X0365559Y0242116D01*
X0365538Y0242262D01*
X0365520Y0242409D01*
X0365506Y0242556D01*
X0365496Y0242704D01*
X0365490Y0242852D01*
X0365488Y0243000D01*
X0365488Y0023000D02*
X0365490Y0023148D01*
X0365496Y0023296D01*
X0365506Y0023444D01*
X0365520Y0023591D01*
X0365538Y0023738D01*
X0365559Y0023884D01*
X0365585Y0024030D01*
X0365615Y0024175D01*
X0365648Y0024319D01*
X0365686Y0024462D01*
X0365727Y0024604D01*
X0365772Y0024745D01*
X0365820Y0024885D01*
X0365873Y0025024D01*
X0365929Y0025161D01*
X0365989Y0025296D01*
X0366052Y0025430D01*
X0366119Y0025562D01*
X0366190Y0025692D01*
X0366264Y0025820D01*
X0366341Y0025946D01*
X0366422Y0026070D01*
X0366506Y0026192D01*
X0366593Y0026311D01*
X0366684Y0026428D01*
X0366778Y0026543D01*
X0366874Y0026655D01*
X0366974Y0026765D01*
X0367076Y0026871D01*
X0367182Y0026975D01*
X0367290Y0027076D01*
X0367401Y0027174D01*
X0367514Y0027270D01*
X0367630Y0027362D01*
X0367748Y0027451D01*
X0367869Y0027536D01*
X0367992Y0027619D01*
X0368117Y0027698D01*
X0368244Y0027774D01*
X0368373Y0027846D01*
X0368504Y0027915D01*
X0368637Y0027980D01*
X0368772Y0028041D01*
X0368908Y0028099D01*
X0369045Y0028154D01*
X0369184Y0028204D01*
X0369325Y0028251D01*
X0369466Y0028294D01*
X0369609Y0028334D01*
X0369753Y0028369D01*
X0369897Y0028401D01*
X0370043Y0028428D01*
X0370189Y0028452D01*
X0370336Y0028472D01*
X0370483Y0028488D01*
X0370630Y0028500D01*
X0370778Y0028508D01*
X0370926Y0028512D01*
X0371074Y0028512D01*
X0371222Y0028508D01*
X0371370Y0028500D01*
X0371517Y0028488D01*
X0371664Y0028472D01*
X0371811Y0028452D01*
X0371957Y0028428D01*
X0372103Y0028401D01*
X0372247Y0028369D01*
X0372391Y0028334D01*
X0372534Y0028294D01*
X0372675Y0028251D01*
X0372816Y0028204D01*
X0372955Y0028154D01*
X0373092Y0028099D01*
X0373228Y0028041D01*
X0373363Y0027980D01*
X0373496Y0027915D01*
X0373627Y0027846D01*
X0373756Y0027774D01*
X0373883Y0027698D01*
X0374008Y0027619D01*
X0374131Y0027536D01*
X0374252Y0027451D01*
X0374370Y0027362D01*
X0374486Y0027270D01*
X0374599Y0027174D01*
X0374710Y0027076D01*
X0374818Y0026975D01*
X0374924Y0026871D01*
X0375026Y0026765D01*
X0375126Y0026655D01*
X0375222Y0026543D01*
X0375316Y0026428D01*
X0375407Y0026311D01*
X0375494Y0026192D01*
X0375578Y0026070D01*
X0375659Y0025946D01*
X0375736Y0025820D01*
X0375810Y0025692D01*
X0375881Y0025562D01*
X0375948Y0025430D01*
X0376011Y0025296D01*
X0376071Y0025161D01*
X0376127Y0025024D01*
X0376180Y0024885D01*
X0376228Y0024745D01*
X0376273Y0024604D01*
X0376314Y0024462D01*
X0376352Y0024319D01*
X0376385Y0024175D01*
X0376415Y0024030D01*
X0376441Y0023884D01*
X0376462Y0023738D01*
X0376480Y0023591D01*
X0376494Y0023444D01*
X0376504Y0023296D01*
X0376510Y0023148D01*
X0376512Y0023000D01*
X0376510Y0022852D01*
X0376504Y0022704D01*
X0376494Y0022556D01*
X0376480Y0022409D01*
X0376462Y0022262D01*
X0376441Y0022116D01*
X0376415Y0021970D01*
X0376385Y0021825D01*
X0376352Y0021681D01*
X0376314Y0021538D01*
X0376273Y0021396D01*
X0376228Y0021255D01*
X0376180Y0021115D01*
X0376127Y0020976D01*
X0376071Y0020839D01*
X0376011Y0020704D01*
X0375948Y0020570D01*
X0375881Y0020438D01*
X0375810Y0020308D01*
X0375736Y0020180D01*
X0375659Y0020054D01*
X0375578Y0019930D01*
X0375494Y0019808D01*
X0375407Y0019689D01*
X0375316Y0019572D01*
X0375222Y0019457D01*
X0375126Y0019345D01*
X0375026Y0019235D01*
X0374924Y0019129D01*
X0374818Y0019025D01*
X0374710Y0018924D01*
X0374599Y0018826D01*
X0374486Y0018730D01*
X0374370Y0018638D01*
X0374252Y0018549D01*
X0374131Y0018464D01*
X0374008Y0018381D01*
X0373883Y0018302D01*
X0373756Y0018226D01*
X0373627Y0018154D01*
X0373496Y0018085D01*
X0373363Y0018020D01*
X0373228Y0017959D01*
X0373092Y0017901D01*
X0372955Y0017846D01*
X0372816Y0017796D01*
X0372675Y0017749D01*
X0372534Y0017706D01*
X0372391Y0017666D01*
X0372247Y0017631D01*
X0372103Y0017599D01*
X0371957Y0017572D01*
X0371811Y0017548D01*
X0371664Y0017528D01*
X0371517Y0017512D01*
X0371370Y0017500D01*
X0371222Y0017492D01*
X0371074Y0017488D01*
X0370926Y0017488D01*
X0370778Y0017492D01*
X0370630Y0017500D01*
X0370483Y0017512D01*
X0370336Y0017528D01*
X0370189Y0017548D01*
X0370043Y0017572D01*
X0369897Y0017599D01*
X0369753Y0017631D01*
X0369609Y0017666D01*
X0369466Y0017706D01*
X0369325Y0017749D01*
X0369184Y0017796D01*
X0369045Y0017846D01*
X0368908Y0017901D01*
X0368772Y0017959D01*
X0368637Y0018020D01*
X0368504Y0018085D01*
X0368373Y0018154D01*
X0368244Y0018226D01*
X0368117Y0018302D01*
X0367992Y0018381D01*
X0367869Y0018464D01*
X0367748Y0018549D01*
X0367630Y0018638D01*
X0367514Y0018730D01*
X0367401Y0018826D01*
X0367290Y0018924D01*
X0367182Y0019025D01*
X0367076Y0019129D01*
X0366974Y0019235D01*
X0366874Y0019345D01*
X0366778Y0019457D01*
X0366684Y0019572D01*
X0366593Y0019689D01*
X0366506Y0019808D01*
X0366422Y0019930D01*
X0366341Y0020054D01*
X0366264Y0020180D01*
X0366190Y0020308D01*
X0366119Y0020438D01*
X0366052Y0020570D01*
X0365989Y0020704D01*
X0365929Y0020839D01*
X0365873Y0020976D01*
X0365820Y0021115D01*
X0365772Y0021255D01*
X0365727Y0021396D01*
X0365686Y0021538D01*
X0365648Y0021681D01*
X0365615Y0021825D01*
X0365585Y0021970D01*
X0365559Y0022116D01*
X0365538Y0022262D01*
X0365520Y0022409D01*
X0365506Y0022556D01*
X0365496Y0022704D01*
X0365490Y0022852D01*
X0365488Y0023000D01*
M02*
