G75*
%MOIN*%
%OFA0B0*%
%FSLAX25Y25*%
%IPPOS*%
%LPD*%
%AMOC8*
5,1,8,0,0,1.08239X$1,22.5*
%
%ADD10C,0.00000*%
%ADD11C,0.00500*%
%ADD12C,0.00100*%
%ADD13C,0.00400*%
%ADD14C,0.00600*%
%ADD15R,0.02000X0.01500*%
D10*
X0001000Y0008000D02*
X0001000Y0257961D01*
X0389701Y0257961D01*
X0389701Y0008000D01*
X0001000Y0008000D01*
X0010488Y0023000D02*
X0010490Y0023148D01*
X0010496Y0023296D01*
X0010506Y0023444D01*
X0010520Y0023591D01*
X0010538Y0023738D01*
X0010559Y0023884D01*
X0010585Y0024030D01*
X0010615Y0024175D01*
X0010648Y0024319D01*
X0010686Y0024462D01*
X0010727Y0024604D01*
X0010772Y0024745D01*
X0010820Y0024885D01*
X0010873Y0025024D01*
X0010929Y0025161D01*
X0010989Y0025296D01*
X0011052Y0025430D01*
X0011119Y0025562D01*
X0011190Y0025692D01*
X0011264Y0025820D01*
X0011341Y0025946D01*
X0011422Y0026070D01*
X0011506Y0026192D01*
X0011593Y0026311D01*
X0011684Y0026428D01*
X0011778Y0026543D01*
X0011874Y0026655D01*
X0011974Y0026765D01*
X0012076Y0026871D01*
X0012182Y0026975D01*
X0012290Y0027076D01*
X0012401Y0027174D01*
X0012514Y0027270D01*
X0012630Y0027362D01*
X0012748Y0027451D01*
X0012869Y0027536D01*
X0012992Y0027619D01*
X0013117Y0027698D01*
X0013244Y0027774D01*
X0013373Y0027846D01*
X0013504Y0027915D01*
X0013637Y0027980D01*
X0013772Y0028041D01*
X0013908Y0028099D01*
X0014045Y0028154D01*
X0014184Y0028204D01*
X0014325Y0028251D01*
X0014466Y0028294D01*
X0014609Y0028334D01*
X0014753Y0028369D01*
X0014897Y0028401D01*
X0015043Y0028428D01*
X0015189Y0028452D01*
X0015336Y0028472D01*
X0015483Y0028488D01*
X0015630Y0028500D01*
X0015778Y0028508D01*
X0015926Y0028512D01*
X0016074Y0028512D01*
X0016222Y0028508D01*
X0016370Y0028500D01*
X0016517Y0028488D01*
X0016664Y0028472D01*
X0016811Y0028452D01*
X0016957Y0028428D01*
X0017103Y0028401D01*
X0017247Y0028369D01*
X0017391Y0028334D01*
X0017534Y0028294D01*
X0017675Y0028251D01*
X0017816Y0028204D01*
X0017955Y0028154D01*
X0018092Y0028099D01*
X0018228Y0028041D01*
X0018363Y0027980D01*
X0018496Y0027915D01*
X0018627Y0027846D01*
X0018756Y0027774D01*
X0018883Y0027698D01*
X0019008Y0027619D01*
X0019131Y0027536D01*
X0019252Y0027451D01*
X0019370Y0027362D01*
X0019486Y0027270D01*
X0019599Y0027174D01*
X0019710Y0027076D01*
X0019818Y0026975D01*
X0019924Y0026871D01*
X0020026Y0026765D01*
X0020126Y0026655D01*
X0020222Y0026543D01*
X0020316Y0026428D01*
X0020407Y0026311D01*
X0020494Y0026192D01*
X0020578Y0026070D01*
X0020659Y0025946D01*
X0020736Y0025820D01*
X0020810Y0025692D01*
X0020881Y0025562D01*
X0020948Y0025430D01*
X0021011Y0025296D01*
X0021071Y0025161D01*
X0021127Y0025024D01*
X0021180Y0024885D01*
X0021228Y0024745D01*
X0021273Y0024604D01*
X0021314Y0024462D01*
X0021352Y0024319D01*
X0021385Y0024175D01*
X0021415Y0024030D01*
X0021441Y0023884D01*
X0021462Y0023738D01*
X0021480Y0023591D01*
X0021494Y0023444D01*
X0021504Y0023296D01*
X0021510Y0023148D01*
X0021512Y0023000D01*
X0021510Y0022852D01*
X0021504Y0022704D01*
X0021494Y0022556D01*
X0021480Y0022409D01*
X0021462Y0022262D01*
X0021441Y0022116D01*
X0021415Y0021970D01*
X0021385Y0021825D01*
X0021352Y0021681D01*
X0021314Y0021538D01*
X0021273Y0021396D01*
X0021228Y0021255D01*
X0021180Y0021115D01*
X0021127Y0020976D01*
X0021071Y0020839D01*
X0021011Y0020704D01*
X0020948Y0020570D01*
X0020881Y0020438D01*
X0020810Y0020308D01*
X0020736Y0020180D01*
X0020659Y0020054D01*
X0020578Y0019930D01*
X0020494Y0019808D01*
X0020407Y0019689D01*
X0020316Y0019572D01*
X0020222Y0019457D01*
X0020126Y0019345D01*
X0020026Y0019235D01*
X0019924Y0019129D01*
X0019818Y0019025D01*
X0019710Y0018924D01*
X0019599Y0018826D01*
X0019486Y0018730D01*
X0019370Y0018638D01*
X0019252Y0018549D01*
X0019131Y0018464D01*
X0019008Y0018381D01*
X0018883Y0018302D01*
X0018756Y0018226D01*
X0018627Y0018154D01*
X0018496Y0018085D01*
X0018363Y0018020D01*
X0018228Y0017959D01*
X0018092Y0017901D01*
X0017955Y0017846D01*
X0017816Y0017796D01*
X0017675Y0017749D01*
X0017534Y0017706D01*
X0017391Y0017666D01*
X0017247Y0017631D01*
X0017103Y0017599D01*
X0016957Y0017572D01*
X0016811Y0017548D01*
X0016664Y0017528D01*
X0016517Y0017512D01*
X0016370Y0017500D01*
X0016222Y0017492D01*
X0016074Y0017488D01*
X0015926Y0017488D01*
X0015778Y0017492D01*
X0015630Y0017500D01*
X0015483Y0017512D01*
X0015336Y0017528D01*
X0015189Y0017548D01*
X0015043Y0017572D01*
X0014897Y0017599D01*
X0014753Y0017631D01*
X0014609Y0017666D01*
X0014466Y0017706D01*
X0014325Y0017749D01*
X0014184Y0017796D01*
X0014045Y0017846D01*
X0013908Y0017901D01*
X0013772Y0017959D01*
X0013637Y0018020D01*
X0013504Y0018085D01*
X0013373Y0018154D01*
X0013244Y0018226D01*
X0013117Y0018302D01*
X0012992Y0018381D01*
X0012869Y0018464D01*
X0012748Y0018549D01*
X0012630Y0018638D01*
X0012514Y0018730D01*
X0012401Y0018826D01*
X0012290Y0018924D01*
X0012182Y0019025D01*
X0012076Y0019129D01*
X0011974Y0019235D01*
X0011874Y0019345D01*
X0011778Y0019457D01*
X0011684Y0019572D01*
X0011593Y0019689D01*
X0011506Y0019808D01*
X0011422Y0019930D01*
X0011341Y0020054D01*
X0011264Y0020180D01*
X0011190Y0020308D01*
X0011119Y0020438D01*
X0011052Y0020570D01*
X0010989Y0020704D01*
X0010929Y0020839D01*
X0010873Y0020976D01*
X0010820Y0021115D01*
X0010772Y0021255D01*
X0010727Y0021396D01*
X0010686Y0021538D01*
X0010648Y0021681D01*
X0010615Y0021825D01*
X0010585Y0021970D01*
X0010559Y0022116D01*
X0010538Y0022262D01*
X0010520Y0022409D01*
X0010506Y0022556D01*
X0010496Y0022704D01*
X0010490Y0022852D01*
X0010488Y0023000D01*
X0010488Y0243000D02*
X0010490Y0243148D01*
X0010496Y0243296D01*
X0010506Y0243444D01*
X0010520Y0243591D01*
X0010538Y0243738D01*
X0010559Y0243884D01*
X0010585Y0244030D01*
X0010615Y0244175D01*
X0010648Y0244319D01*
X0010686Y0244462D01*
X0010727Y0244604D01*
X0010772Y0244745D01*
X0010820Y0244885D01*
X0010873Y0245024D01*
X0010929Y0245161D01*
X0010989Y0245296D01*
X0011052Y0245430D01*
X0011119Y0245562D01*
X0011190Y0245692D01*
X0011264Y0245820D01*
X0011341Y0245946D01*
X0011422Y0246070D01*
X0011506Y0246192D01*
X0011593Y0246311D01*
X0011684Y0246428D01*
X0011778Y0246543D01*
X0011874Y0246655D01*
X0011974Y0246765D01*
X0012076Y0246871D01*
X0012182Y0246975D01*
X0012290Y0247076D01*
X0012401Y0247174D01*
X0012514Y0247270D01*
X0012630Y0247362D01*
X0012748Y0247451D01*
X0012869Y0247536D01*
X0012992Y0247619D01*
X0013117Y0247698D01*
X0013244Y0247774D01*
X0013373Y0247846D01*
X0013504Y0247915D01*
X0013637Y0247980D01*
X0013772Y0248041D01*
X0013908Y0248099D01*
X0014045Y0248154D01*
X0014184Y0248204D01*
X0014325Y0248251D01*
X0014466Y0248294D01*
X0014609Y0248334D01*
X0014753Y0248369D01*
X0014897Y0248401D01*
X0015043Y0248428D01*
X0015189Y0248452D01*
X0015336Y0248472D01*
X0015483Y0248488D01*
X0015630Y0248500D01*
X0015778Y0248508D01*
X0015926Y0248512D01*
X0016074Y0248512D01*
X0016222Y0248508D01*
X0016370Y0248500D01*
X0016517Y0248488D01*
X0016664Y0248472D01*
X0016811Y0248452D01*
X0016957Y0248428D01*
X0017103Y0248401D01*
X0017247Y0248369D01*
X0017391Y0248334D01*
X0017534Y0248294D01*
X0017675Y0248251D01*
X0017816Y0248204D01*
X0017955Y0248154D01*
X0018092Y0248099D01*
X0018228Y0248041D01*
X0018363Y0247980D01*
X0018496Y0247915D01*
X0018627Y0247846D01*
X0018756Y0247774D01*
X0018883Y0247698D01*
X0019008Y0247619D01*
X0019131Y0247536D01*
X0019252Y0247451D01*
X0019370Y0247362D01*
X0019486Y0247270D01*
X0019599Y0247174D01*
X0019710Y0247076D01*
X0019818Y0246975D01*
X0019924Y0246871D01*
X0020026Y0246765D01*
X0020126Y0246655D01*
X0020222Y0246543D01*
X0020316Y0246428D01*
X0020407Y0246311D01*
X0020494Y0246192D01*
X0020578Y0246070D01*
X0020659Y0245946D01*
X0020736Y0245820D01*
X0020810Y0245692D01*
X0020881Y0245562D01*
X0020948Y0245430D01*
X0021011Y0245296D01*
X0021071Y0245161D01*
X0021127Y0245024D01*
X0021180Y0244885D01*
X0021228Y0244745D01*
X0021273Y0244604D01*
X0021314Y0244462D01*
X0021352Y0244319D01*
X0021385Y0244175D01*
X0021415Y0244030D01*
X0021441Y0243884D01*
X0021462Y0243738D01*
X0021480Y0243591D01*
X0021494Y0243444D01*
X0021504Y0243296D01*
X0021510Y0243148D01*
X0021512Y0243000D01*
X0021510Y0242852D01*
X0021504Y0242704D01*
X0021494Y0242556D01*
X0021480Y0242409D01*
X0021462Y0242262D01*
X0021441Y0242116D01*
X0021415Y0241970D01*
X0021385Y0241825D01*
X0021352Y0241681D01*
X0021314Y0241538D01*
X0021273Y0241396D01*
X0021228Y0241255D01*
X0021180Y0241115D01*
X0021127Y0240976D01*
X0021071Y0240839D01*
X0021011Y0240704D01*
X0020948Y0240570D01*
X0020881Y0240438D01*
X0020810Y0240308D01*
X0020736Y0240180D01*
X0020659Y0240054D01*
X0020578Y0239930D01*
X0020494Y0239808D01*
X0020407Y0239689D01*
X0020316Y0239572D01*
X0020222Y0239457D01*
X0020126Y0239345D01*
X0020026Y0239235D01*
X0019924Y0239129D01*
X0019818Y0239025D01*
X0019710Y0238924D01*
X0019599Y0238826D01*
X0019486Y0238730D01*
X0019370Y0238638D01*
X0019252Y0238549D01*
X0019131Y0238464D01*
X0019008Y0238381D01*
X0018883Y0238302D01*
X0018756Y0238226D01*
X0018627Y0238154D01*
X0018496Y0238085D01*
X0018363Y0238020D01*
X0018228Y0237959D01*
X0018092Y0237901D01*
X0017955Y0237846D01*
X0017816Y0237796D01*
X0017675Y0237749D01*
X0017534Y0237706D01*
X0017391Y0237666D01*
X0017247Y0237631D01*
X0017103Y0237599D01*
X0016957Y0237572D01*
X0016811Y0237548D01*
X0016664Y0237528D01*
X0016517Y0237512D01*
X0016370Y0237500D01*
X0016222Y0237492D01*
X0016074Y0237488D01*
X0015926Y0237488D01*
X0015778Y0237492D01*
X0015630Y0237500D01*
X0015483Y0237512D01*
X0015336Y0237528D01*
X0015189Y0237548D01*
X0015043Y0237572D01*
X0014897Y0237599D01*
X0014753Y0237631D01*
X0014609Y0237666D01*
X0014466Y0237706D01*
X0014325Y0237749D01*
X0014184Y0237796D01*
X0014045Y0237846D01*
X0013908Y0237901D01*
X0013772Y0237959D01*
X0013637Y0238020D01*
X0013504Y0238085D01*
X0013373Y0238154D01*
X0013244Y0238226D01*
X0013117Y0238302D01*
X0012992Y0238381D01*
X0012869Y0238464D01*
X0012748Y0238549D01*
X0012630Y0238638D01*
X0012514Y0238730D01*
X0012401Y0238826D01*
X0012290Y0238924D01*
X0012182Y0239025D01*
X0012076Y0239129D01*
X0011974Y0239235D01*
X0011874Y0239345D01*
X0011778Y0239457D01*
X0011684Y0239572D01*
X0011593Y0239689D01*
X0011506Y0239808D01*
X0011422Y0239930D01*
X0011341Y0240054D01*
X0011264Y0240180D01*
X0011190Y0240308D01*
X0011119Y0240438D01*
X0011052Y0240570D01*
X0010989Y0240704D01*
X0010929Y0240839D01*
X0010873Y0240976D01*
X0010820Y0241115D01*
X0010772Y0241255D01*
X0010727Y0241396D01*
X0010686Y0241538D01*
X0010648Y0241681D01*
X0010615Y0241825D01*
X0010585Y0241970D01*
X0010559Y0242116D01*
X0010538Y0242262D01*
X0010520Y0242409D01*
X0010506Y0242556D01*
X0010496Y0242704D01*
X0010490Y0242852D01*
X0010488Y0243000D01*
X0365488Y0243000D02*
X0365490Y0243148D01*
X0365496Y0243296D01*
X0365506Y0243444D01*
X0365520Y0243591D01*
X0365538Y0243738D01*
X0365559Y0243884D01*
X0365585Y0244030D01*
X0365615Y0244175D01*
X0365648Y0244319D01*
X0365686Y0244462D01*
X0365727Y0244604D01*
X0365772Y0244745D01*
X0365820Y0244885D01*
X0365873Y0245024D01*
X0365929Y0245161D01*
X0365989Y0245296D01*
X0366052Y0245430D01*
X0366119Y0245562D01*
X0366190Y0245692D01*
X0366264Y0245820D01*
X0366341Y0245946D01*
X0366422Y0246070D01*
X0366506Y0246192D01*
X0366593Y0246311D01*
X0366684Y0246428D01*
X0366778Y0246543D01*
X0366874Y0246655D01*
X0366974Y0246765D01*
X0367076Y0246871D01*
X0367182Y0246975D01*
X0367290Y0247076D01*
X0367401Y0247174D01*
X0367514Y0247270D01*
X0367630Y0247362D01*
X0367748Y0247451D01*
X0367869Y0247536D01*
X0367992Y0247619D01*
X0368117Y0247698D01*
X0368244Y0247774D01*
X0368373Y0247846D01*
X0368504Y0247915D01*
X0368637Y0247980D01*
X0368772Y0248041D01*
X0368908Y0248099D01*
X0369045Y0248154D01*
X0369184Y0248204D01*
X0369325Y0248251D01*
X0369466Y0248294D01*
X0369609Y0248334D01*
X0369753Y0248369D01*
X0369897Y0248401D01*
X0370043Y0248428D01*
X0370189Y0248452D01*
X0370336Y0248472D01*
X0370483Y0248488D01*
X0370630Y0248500D01*
X0370778Y0248508D01*
X0370926Y0248512D01*
X0371074Y0248512D01*
X0371222Y0248508D01*
X0371370Y0248500D01*
X0371517Y0248488D01*
X0371664Y0248472D01*
X0371811Y0248452D01*
X0371957Y0248428D01*
X0372103Y0248401D01*
X0372247Y0248369D01*
X0372391Y0248334D01*
X0372534Y0248294D01*
X0372675Y0248251D01*
X0372816Y0248204D01*
X0372955Y0248154D01*
X0373092Y0248099D01*
X0373228Y0248041D01*
X0373363Y0247980D01*
X0373496Y0247915D01*
X0373627Y0247846D01*
X0373756Y0247774D01*
X0373883Y0247698D01*
X0374008Y0247619D01*
X0374131Y0247536D01*
X0374252Y0247451D01*
X0374370Y0247362D01*
X0374486Y0247270D01*
X0374599Y0247174D01*
X0374710Y0247076D01*
X0374818Y0246975D01*
X0374924Y0246871D01*
X0375026Y0246765D01*
X0375126Y0246655D01*
X0375222Y0246543D01*
X0375316Y0246428D01*
X0375407Y0246311D01*
X0375494Y0246192D01*
X0375578Y0246070D01*
X0375659Y0245946D01*
X0375736Y0245820D01*
X0375810Y0245692D01*
X0375881Y0245562D01*
X0375948Y0245430D01*
X0376011Y0245296D01*
X0376071Y0245161D01*
X0376127Y0245024D01*
X0376180Y0244885D01*
X0376228Y0244745D01*
X0376273Y0244604D01*
X0376314Y0244462D01*
X0376352Y0244319D01*
X0376385Y0244175D01*
X0376415Y0244030D01*
X0376441Y0243884D01*
X0376462Y0243738D01*
X0376480Y0243591D01*
X0376494Y0243444D01*
X0376504Y0243296D01*
X0376510Y0243148D01*
X0376512Y0243000D01*
X0376510Y0242852D01*
X0376504Y0242704D01*
X0376494Y0242556D01*
X0376480Y0242409D01*
X0376462Y0242262D01*
X0376441Y0242116D01*
X0376415Y0241970D01*
X0376385Y0241825D01*
X0376352Y0241681D01*
X0376314Y0241538D01*
X0376273Y0241396D01*
X0376228Y0241255D01*
X0376180Y0241115D01*
X0376127Y0240976D01*
X0376071Y0240839D01*
X0376011Y0240704D01*
X0375948Y0240570D01*
X0375881Y0240438D01*
X0375810Y0240308D01*
X0375736Y0240180D01*
X0375659Y0240054D01*
X0375578Y0239930D01*
X0375494Y0239808D01*
X0375407Y0239689D01*
X0375316Y0239572D01*
X0375222Y0239457D01*
X0375126Y0239345D01*
X0375026Y0239235D01*
X0374924Y0239129D01*
X0374818Y0239025D01*
X0374710Y0238924D01*
X0374599Y0238826D01*
X0374486Y0238730D01*
X0374370Y0238638D01*
X0374252Y0238549D01*
X0374131Y0238464D01*
X0374008Y0238381D01*
X0373883Y0238302D01*
X0373756Y0238226D01*
X0373627Y0238154D01*
X0373496Y0238085D01*
X0373363Y0238020D01*
X0373228Y0237959D01*
X0373092Y0237901D01*
X0372955Y0237846D01*
X0372816Y0237796D01*
X0372675Y0237749D01*
X0372534Y0237706D01*
X0372391Y0237666D01*
X0372247Y0237631D01*
X0372103Y0237599D01*
X0371957Y0237572D01*
X0371811Y0237548D01*
X0371664Y0237528D01*
X0371517Y0237512D01*
X0371370Y0237500D01*
X0371222Y0237492D01*
X0371074Y0237488D01*
X0370926Y0237488D01*
X0370778Y0237492D01*
X0370630Y0237500D01*
X0370483Y0237512D01*
X0370336Y0237528D01*
X0370189Y0237548D01*
X0370043Y0237572D01*
X0369897Y0237599D01*
X0369753Y0237631D01*
X0369609Y0237666D01*
X0369466Y0237706D01*
X0369325Y0237749D01*
X0369184Y0237796D01*
X0369045Y0237846D01*
X0368908Y0237901D01*
X0368772Y0237959D01*
X0368637Y0238020D01*
X0368504Y0238085D01*
X0368373Y0238154D01*
X0368244Y0238226D01*
X0368117Y0238302D01*
X0367992Y0238381D01*
X0367869Y0238464D01*
X0367748Y0238549D01*
X0367630Y0238638D01*
X0367514Y0238730D01*
X0367401Y0238826D01*
X0367290Y0238924D01*
X0367182Y0239025D01*
X0367076Y0239129D01*
X0366974Y0239235D01*
X0366874Y0239345D01*
X0366778Y0239457D01*
X0366684Y0239572D01*
X0366593Y0239689D01*
X0366506Y0239808D01*
X0366422Y0239930D01*
X0366341Y0240054D01*
X0366264Y0240180D01*
X0366190Y0240308D01*
X0366119Y0240438D01*
X0366052Y0240570D01*
X0365989Y0240704D01*
X0365929Y0240839D01*
X0365873Y0240976D01*
X0365820Y0241115D01*
X0365772Y0241255D01*
X0365727Y0241396D01*
X0365686Y0241538D01*
X0365648Y0241681D01*
X0365615Y0241825D01*
X0365585Y0241970D01*
X0365559Y0242116D01*
X0365538Y0242262D01*
X0365520Y0242409D01*
X0365506Y0242556D01*
X0365496Y0242704D01*
X0365490Y0242852D01*
X0365488Y0243000D01*
X0365488Y0023000D02*
X0365490Y0023148D01*
X0365496Y0023296D01*
X0365506Y0023444D01*
X0365520Y0023591D01*
X0365538Y0023738D01*
X0365559Y0023884D01*
X0365585Y0024030D01*
X0365615Y0024175D01*
X0365648Y0024319D01*
X0365686Y0024462D01*
X0365727Y0024604D01*
X0365772Y0024745D01*
X0365820Y0024885D01*
X0365873Y0025024D01*
X0365929Y0025161D01*
X0365989Y0025296D01*
X0366052Y0025430D01*
X0366119Y0025562D01*
X0366190Y0025692D01*
X0366264Y0025820D01*
X0366341Y0025946D01*
X0366422Y0026070D01*
X0366506Y0026192D01*
X0366593Y0026311D01*
X0366684Y0026428D01*
X0366778Y0026543D01*
X0366874Y0026655D01*
X0366974Y0026765D01*
X0367076Y0026871D01*
X0367182Y0026975D01*
X0367290Y0027076D01*
X0367401Y0027174D01*
X0367514Y0027270D01*
X0367630Y0027362D01*
X0367748Y0027451D01*
X0367869Y0027536D01*
X0367992Y0027619D01*
X0368117Y0027698D01*
X0368244Y0027774D01*
X0368373Y0027846D01*
X0368504Y0027915D01*
X0368637Y0027980D01*
X0368772Y0028041D01*
X0368908Y0028099D01*
X0369045Y0028154D01*
X0369184Y0028204D01*
X0369325Y0028251D01*
X0369466Y0028294D01*
X0369609Y0028334D01*
X0369753Y0028369D01*
X0369897Y0028401D01*
X0370043Y0028428D01*
X0370189Y0028452D01*
X0370336Y0028472D01*
X0370483Y0028488D01*
X0370630Y0028500D01*
X0370778Y0028508D01*
X0370926Y0028512D01*
X0371074Y0028512D01*
X0371222Y0028508D01*
X0371370Y0028500D01*
X0371517Y0028488D01*
X0371664Y0028472D01*
X0371811Y0028452D01*
X0371957Y0028428D01*
X0372103Y0028401D01*
X0372247Y0028369D01*
X0372391Y0028334D01*
X0372534Y0028294D01*
X0372675Y0028251D01*
X0372816Y0028204D01*
X0372955Y0028154D01*
X0373092Y0028099D01*
X0373228Y0028041D01*
X0373363Y0027980D01*
X0373496Y0027915D01*
X0373627Y0027846D01*
X0373756Y0027774D01*
X0373883Y0027698D01*
X0374008Y0027619D01*
X0374131Y0027536D01*
X0374252Y0027451D01*
X0374370Y0027362D01*
X0374486Y0027270D01*
X0374599Y0027174D01*
X0374710Y0027076D01*
X0374818Y0026975D01*
X0374924Y0026871D01*
X0375026Y0026765D01*
X0375126Y0026655D01*
X0375222Y0026543D01*
X0375316Y0026428D01*
X0375407Y0026311D01*
X0375494Y0026192D01*
X0375578Y0026070D01*
X0375659Y0025946D01*
X0375736Y0025820D01*
X0375810Y0025692D01*
X0375881Y0025562D01*
X0375948Y0025430D01*
X0376011Y0025296D01*
X0376071Y0025161D01*
X0376127Y0025024D01*
X0376180Y0024885D01*
X0376228Y0024745D01*
X0376273Y0024604D01*
X0376314Y0024462D01*
X0376352Y0024319D01*
X0376385Y0024175D01*
X0376415Y0024030D01*
X0376441Y0023884D01*
X0376462Y0023738D01*
X0376480Y0023591D01*
X0376494Y0023444D01*
X0376504Y0023296D01*
X0376510Y0023148D01*
X0376512Y0023000D01*
X0376510Y0022852D01*
X0376504Y0022704D01*
X0376494Y0022556D01*
X0376480Y0022409D01*
X0376462Y0022262D01*
X0376441Y0022116D01*
X0376415Y0021970D01*
X0376385Y0021825D01*
X0376352Y0021681D01*
X0376314Y0021538D01*
X0376273Y0021396D01*
X0376228Y0021255D01*
X0376180Y0021115D01*
X0376127Y0020976D01*
X0376071Y0020839D01*
X0376011Y0020704D01*
X0375948Y0020570D01*
X0375881Y0020438D01*
X0375810Y0020308D01*
X0375736Y0020180D01*
X0375659Y0020054D01*
X0375578Y0019930D01*
X0375494Y0019808D01*
X0375407Y0019689D01*
X0375316Y0019572D01*
X0375222Y0019457D01*
X0375126Y0019345D01*
X0375026Y0019235D01*
X0374924Y0019129D01*
X0374818Y0019025D01*
X0374710Y0018924D01*
X0374599Y0018826D01*
X0374486Y0018730D01*
X0374370Y0018638D01*
X0374252Y0018549D01*
X0374131Y0018464D01*
X0374008Y0018381D01*
X0373883Y0018302D01*
X0373756Y0018226D01*
X0373627Y0018154D01*
X0373496Y0018085D01*
X0373363Y0018020D01*
X0373228Y0017959D01*
X0373092Y0017901D01*
X0372955Y0017846D01*
X0372816Y0017796D01*
X0372675Y0017749D01*
X0372534Y0017706D01*
X0372391Y0017666D01*
X0372247Y0017631D01*
X0372103Y0017599D01*
X0371957Y0017572D01*
X0371811Y0017548D01*
X0371664Y0017528D01*
X0371517Y0017512D01*
X0371370Y0017500D01*
X0371222Y0017492D01*
X0371074Y0017488D01*
X0370926Y0017488D01*
X0370778Y0017492D01*
X0370630Y0017500D01*
X0370483Y0017512D01*
X0370336Y0017528D01*
X0370189Y0017548D01*
X0370043Y0017572D01*
X0369897Y0017599D01*
X0369753Y0017631D01*
X0369609Y0017666D01*
X0369466Y0017706D01*
X0369325Y0017749D01*
X0369184Y0017796D01*
X0369045Y0017846D01*
X0368908Y0017901D01*
X0368772Y0017959D01*
X0368637Y0018020D01*
X0368504Y0018085D01*
X0368373Y0018154D01*
X0368244Y0018226D01*
X0368117Y0018302D01*
X0367992Y0018381D01*
X0367869Y0018464D01*
X0367748Y0018549D01*
X0367630Y0018638D01*
X0367514Y0018730D01*
X0367401Y0018826D01*
X0367290Y0018924D01*
X0367182Y0019025D01*
X0367076Y0019129D01*
X0366974Y0019235D01*
X0366874Y0019345D01*
X0366778Y0019457D01*
X0366684Y0019572D01*
X0366593Y0019689D01*
X0366506Y0019808D01*
X0366422Y0019930D01*
X0366341Y0020054D01*
X0366264Y0020180D01*
X0366190Y0020308D01*
X0366119Y0020438D01*
X0366052Y0020570D01*
X0365989Y0020704D01*
X0365929Y0020839D01*
X0365873Y0020976D01*
X0365820Y0021115D01*
X0365772Y0021255D01*
X0365727Y0021396D01*
X0365686Y0021538D01*
X0365648Y0021681D01*
X0365615Y0021825D01*
X0365585Y0021970D01*
X0365559Y0022116D01*
X0365538Y0022262D01*
X0365520Y0022409D01*
X0365506Y0022556D01*
X0365496Y0022704D01*
X0365490Y0022852D01*
X0365488Y0023000D01*
D11*
X0356000Y0033000D02*
X0026000Y0033000D01*
X0026000Y0203000D01*
X0356000Y0203000D01*
X0356000Y0033000D01*
X0326000Y0023000D02*
X0326000Y0013000D01*
X0226000Y0013000D01*
X0226000Y0023000D01*
X0326000Y0023000D01*
X0206000Y0213000D02*
X0156000Y0213000D01*
X0156000Y0233000D01*
X0171000Y0233000D01*
X0191000Y0233000D02*
X0206000Y0233000D01*
X0206000Y0213000D01*
X0226000Y0243000D02*
X0326000Y0243000D01*
X0326000Y0253000D01*
X0226000Y0253000D01*
X0226000Y0243000D01*
X0136000Y0243000D02*
X0136000Y0253000D01*
X0036000Y0253000D01*
X0036000Y0243000D01*
X0136000Y0243000D01*
D12*
X0082550Y0237578D02*
X0082050Y0237077D01*
X0082050Y0237327D02*
X0082050Y0236577D01*
X0082550Y0236577D02*
X0081049Y0236577D01*
X0081049Y0237327D01*
X0081299Y0237578D01*
X0081799Y0237578D01*
X0082050Y0237327D01*
X0082550Y0236104D02*
X0082550Y0235103D01*
X0081049Y0235103D01*
X0081049Y0236104D01*
X0081799Y0235604D02*
X0081799Y0235103D01*
X0081049Y0234631D02*
X0081049Y0233630D01*
X0081049Y0234131D02*
X0082550Y0234131D01*
X0082300Y0233158D02*
X0082550Y0232908D01*
X0082550Y0232407D01*
X0082300Y0232157D01*
X0082550Y0231685D02*
X0081549Y0231685D01*
X0081049Y0231184D01*
X0081549Y0230684D01*
X0082550Y0230684D01*
X0082550Y0230211D02*
X0081049Y0230211D01*
X0081549Y0229711D01*
X0081049Y0229210D01*
X0082550Y0229210D01*
X0081799Y0230684D02*
X0081799Y0231685D01*
X0081549Y0232157D02*
X0081799Y0232407D01*
X0081799Y0232908D01*
X0082050Y0233158D01*
X0082300Y0233158D01*
X0081299Y0233158D02*
X0081049Y0232908D01*
X0081049Y0232407D01*
X0081299Y0232157D01*
X0081549Y0232157D01*
X0081549Y0255684D02*
X0081799Y0255934D01*
X0081799Y0256434D01*
X0082050Y0256685D01*
X0082300Y0256685D01*
X0082550Y0256434D01*
X0082550Y0255934D01*
X0082300Y0255684D01*
X0081549Y0255684D02*
X0081299Y0255684D01*
X0081049Y0255934D01*
X0081049Y0256434D01*
X0081299Y0256685D01*
X0081049Y0257157D02*
X0082550Y0257157D01*
X0082550Y0258158D01*
X0082550Y0258630D02*
X0081549Y0258630D01*
X0081049Y0259131D01*
X0081549Y0259631D01*
X0082550Y0259631D01*
X0082050Y0260103D02*
X0082550Y0260604D01*
X0082050Y0261104D01*
X0081049Y0261104D01*
X0081049Y0261577D02*
X0082550Y0261577D01*
X0082550Y0262578D01*
X0081799Y0262077D02*
X0081799Y0261577D01*
X0081049Y0261577D02*
X0081049Y0262578D01*
X0081049Y0260103D02*
X0082050Y0260103D01*
X0081799Y0259631D02*
X0081799Y0258630D01*
X0271049Y0259131D02*
X0271549Y0259631D01*
X0272550Y0259631D01*
X0272050Y0260103D02*
X0272550Y0260604D01*
X0272050Y0261104D01*
X0271049Y0261104D01*
X0271049Y0261577D02*
X0272550Y0261577D01*
X0272550Y0262578D01*
X0271799Y0262077D02*
X0271799Y0261577D01*
X0271049Y0261577D02*
X0271049Y0262578D01*
X0271049Y0260103D02*
X0272050Y0260103D01*
X0271799Y0259631D02*
X0271799Y0258630D01*
X0271549Y0258630D02*
X0271049Y0259131D01*
X0271549Y0258630D02*
X0272550Y0258630D01*
X0272550Y0258158D02*
X0272550Y0257157D01*
X0271049Y0257157D01*
X0271299Y0256685D02*
X0271049Y0256434D01*
X0271049Y0255934D01*
X0271299Y0255684D01*
X0271549Y0255684D01*
X0271799Y0255934D01*
X0271799Y0256434D01*
X0272050Y0256685D01*
X0272300Y0256685D01*
X0272550Y0256434D01*
X0272550Y0255934D01*
X0272300Y0255684D01*
X0272550Y0237578D02*
X0272050Y0237077D01*
X0272050Y0237327D02*
X0272050Y0236577D01*
X0272550Y0236577D02*
X0271049Y0236577D01*
X0271049Y0237327D01*
X0271299Y0237578D01*
X0271799Y0237578D01*
X0272050Y0237327D01*
X0272550Y0236104D02*
X0272550Y0235103D01*
X0271049Y0235103D01*
X0271049Y0236104D01*
X0271799Y0235604D02*
X0271799Y0235103D01*
X0271049Y0234631D02*
X0271049Y0233630D01*
X0271049Y0234131D02*
X0272550Y0234131D01*
X0272300Y0233158D02*
X0272550Y0232908D01*
X0272550Y0232407D01*
X0272300Y0232157D01*
X0272550Y0231685D02*
X0271549Y0231685D01*
X0271049Y0231184D01*
X0271549Y0230684D01*
X0272550Y0230684D01*
X0272550Y0230211D02*
X0271049Y0230211D01*
X0271549Y0229711D01*
X0271049Y0229210D01*
X0272550Y0229210D01*
X0271799Y0230684D02*
X0271799Y0231685D01*
X0271549Y0232157D02*
X0271799Y0232407D01*
X0271799Y0232908D01*
X0272050Y0233158D01*
X0272300Y0233158D01*
X0271299Y0233158D02*
X0271049Y0232908D01*
X0271049Y0232407D01*
X0271299Y0232157D01*
X0271549Y0232157D01*
X0279699Y0036417D02*
X0280199Y0036417D01*
X0280450Y0036167D01*
X0280450Y0035416D01*
X0280950Y0035416D02*
X0279449Y0035416D01*
X0279449Y0036167D01*
X0279699Y0036417D01*
X0280450Y0035917D02*
X0280950Y0036417D01*
X0280950Y0034944D02*
X0280950Y0033943D01*
X0279449Y0033943D01*
X0279449Y0034944D01*
X0280199Y0034443D02*
X0280199Y0033943D01*
X0279449Y0033471D02*
X0279449Y0032470D01*
X0279449Y0032970D02*
X0280950Y0032970D01*
X0280700Y0031997D02*
X0280950Y0031747D01*
X0280950Y0031247D01*
X0280700Y0030997D01*
X0280950Y0030524D02*
X0279949Y0030524D01*
X0279449Y0030024D01*
X0279949Y0029523D01*
X0280950Y0029523D01*
X0280950Y0029051D02*
X0279449Y0029051D01*
X0279949Y0028550D01*
X0279449Y0028050D01*
X0280950Y0028050D01*
X0280199Y0029523D02*
X0280199Y0030524D01*
X0279949Y0030997D02*
X0280199Y0031247D01*
X0280199Y0031747D01*
X0280450Y0031997D01*
X0280700Y0031997D01*
X0279699Y0031997D02*
X0279449Y0031747D01*
X0279449Y0031247D01*
X0279699Y0030997D01*
X0279949Y0030997D01*
X0279449Y0009944D02*
X0279449Y0008943D01*
X0280950Y0008943D01*
X0280950Y0009944D01*
X0280199Y0009443D02*
X0280199Y0008943D01*
X0280450Y0008471D02*
X0279449Y0008471D01*
X0280450Y0008471D02*
X0280950Y0007970D01*
X0280450Y0007470D01*
X0279449Y0007470D01*
X0279949Y0006997D02*
X0280950Y0006997D01*
X0280199Y0006997D02*
X0280199Y0005997D01*
X0279949Y0005997D02*
X0279449Y0006497D01*
X0279949Y0006997D01*
X0279949Y0005997D02*
X0280950Y0005997D01*
X0280950Y0005524D02*
X0280950Y0004523D01*
X0279449Y0004523D01*
X0279699Y0004051D02*
X0279449Y0003801D01*
X0279449Y0003300D01*
X0279699Y0003050D01*
X0279949Y0003050D01*
X0280199Y0003300D01*
X0280199Y0003801D01*
X0280450Y0004051D01*
X0280700Y0004051D01*
X0280950Y0003801D01*
X0280950Y0003300D01*
X0280700Y0003050D01*
D13*
X0357197Y0073200D02*
X0357197Y0074951D01*
X0357781Y0075535D01*
X0358949Y0075535D01*
X0359532Y0074951D01*
X0359532Y0073200D01*
X0359532Y0074368D02*
X0360700Y0075535D01*
X0358949Y0076791D02*
X0358949Y0079126D01*
X0360700Y0078543D02*
X0357197Y0078543D01*
X0358949Y0076791D01*
X0360700Y0073200D02*
X0357197Y0073200D01*
X0367197Y0073200D02*
X0367197Y0074951D01*
X0367781Y0075535D01*
X0368949Y0075535D01*
X0369532Y0074951D01*
X0369532Y0073200D01*
X0369532Y0074368D02*
X0370700Y0075535D01*
X0370116Y0076791D02*
X0370700Y0077375D01*
X0370700Y0078543D01*
X0370116Y0079126D01*
X0369532Y0079126D01*
X0368949Y0078543D01*
X0368949Y0077959D01*
X0368949Y0078543D02*
X0368365Y0079126D01*
X0367781Y0079126D01*
X0367197Y0078543D01*
X0367197Y0077375D01*
X0367781Y0076791D01*
X0367197Y0073200D02*
X0370700Y0073200D01*
X0185800Y0195156D02*
X0185033Y0194388D01*
X0185800Y0195156D02*
X0185800Y0196690D01*
X0185033Y0197457D01*
X0184265Y0197457D01*
X0183498Y0196690D01*
X0183498Y0195156D01*
X0182731Y0194388D01*
X0181963Y0194388D01*
X0181196Y0195156D01*
X0181196Y0196690D01*
X0181963Y0197457D01*
X0181196Y0198992D02*
X0185800Y0198992D01*
X0184265Y0200527D01*
X0185800Y0202061D01*
X0181196Y0202061D01*
X0181196Y0203596D02*
X0181196Y0205898D01*
X0181963Y0206665D01*
X0185033Y0206665D01*
X0185800Y0205898D01*
X0185800Y0203596D01*
X0181196Y0203596D01*
X0276297Y0226018D02*
X0276297Y0227769D01*
X0276881Y0228353D01*
X0278049Y0228353D01*
X0278632Y0227769D01*
X0278632Y0226018D01*
X0278632Y0227186D02*
X0279800Y0228353D01*
X0279800Y0229609D02*
X0279800Y0231944D01*
X0279800Y0230777D02*
X0276297Y0230777D01*
X0277465Y0229609D01*
X0276297Y0226018D02*
X0279800Y0226018D01*
X0286297Y0226018D02*
X0286297Y0227769D01*
X0286881Y0228353D01*
X0288049Y0228353D01*
X0288632Y0227769D01*
X0288632Y0226018D01*
X0288632Y0227186D02*
X0289800Y0228353D01*
X0289800Y0229609D02*
X0287465Y0231944D01*
X0286881Y0231944D01*
X0286297Y0231360D01*
X0286297Y0230193D01*
X0286881Y0229609D01*
X0289800Y0229609D02*
X0289800Y0231944D01*
X0289800Y0226018D02*
X0286297Y0226018D01*
D14*
X0284500Y0230000D02*
X0284500Y0216000D01*
X0285000Y0215500D01*
X0285000Y0214000D01*
X0284998Y0213940D01*
X0284993Y0213879D01*
X0284984Y0213820D01*
X0284971Y0213761D01*
X0284955Y0213702D01*
X0284935Y0213645D01*
X0284912Y0213590D01*
X0284885Y0213535D01*
X0284856Y0213483D01*
X0284823Y0213432D01*
X0284787Y0213383D01*
X0284749Y0213337D01*
X0284707Y0213293D01*
X0284663Y0213251D01*
X0284617Y0213213D01*
X0284568Y0213177D01*
X0284517Y0213144D01*
X0284465Y0213115D01*
X0284410Y0213088D01*
X0284355Y0213065D01*
X0284298Y0213045D01*
X0284239Y0213029D01*
X0284180Y0213016D01*
X0284121Y0213007D01*
X0284060Y0213002D01*
X0284000Y0213000D01*
X0278000Y0213000D01*
X0277940Y0213002D01*
X0277879Y0213007D01*
X0277820Y0213016D01*
X0277761Y0213029D01*
X0277702Y0213045D01*
X0277645Y0213065D01*
X0277590Y0213088D01*
X0277535Y0213115D01*
X0277483Y0213144D01*
X0277432Y0213177D01*
X0277383Y0213213D01*
X0277337Y0213251D01*
X0277293Y0213293D01*
X0277251Y0213337D01*
X0277213Y0213383D01*
X0277177Y0213432D01*
X0277144Y0213483D01*
X0277115Y0213535D01*
X0277088Y0213590D01*
X0277065Y0213645D01*
X0277045Y0213702D01*
X0277029Y0213761D01*
X0277016Y0213820D01*
X0277007Y0213879D01*
X0277002Y0213940D01*
X0277000Y0214000D01*
X0277000Y0215500D01*
X0277500Y0216000D01*
X0277500Y0230000D01*
X0277000Y0230500D01*
X0277000Y0232000D01*
X0277002Y0232060D01*
X0277007Y0232121D01*
X0277016Y0232180D01*
X0277029Y0232239D01*
X0277045Y0232298D01*
X0277065Y0232355D01*
X0277088Y0232410D01*
X0277115Y0232465D01*
X0277144Y0232517D01*
X0277177Y0232568D01*
X0277213Y0232617D01*
X0277251Y0232663D01*
X0277293Y0232707D01*
X0277337Y0232749D01*
X0277383Y0232787D01*
X0277432Y0232823D01*
X0277483Y0232856D01*
X0277535Y0232885D01*
X0277590Y0232912D01*
X0277645Y0232935D01*
X0277702Y0232955D01*
X0277761Y0232971D01*
X0277820Y0232984D01*
X0277879Y0232993D01*
X0277940Y0232998D01*
X0278000Y0233000D01*
X0284000Y0233000D01*
X0284060Y0232998D01*
X0284121Y0232993D01*
X0284180Y0232984D01*
X0284239Y0232971D01*
X0284298Y0232955D01*
X0284355Y0232935D01*
X0284410Y0232912D01*
X0284465Y0232885D01*
X0284517Y0232856D01*
X0284568Y0232823D01*
X0284617Y0232787D01*
X0284663Y0232749D01*
X0284707Y0232707D01*
X0284749Y0232663D01*
X0284787Y0232617D01*
X0284823Y0232568D01*
X0284856Y0232517D01*
X0284885Y0232465D01*
X0284912Y0232410D01*
X0284935Y0232355D01*
X0284955Y0232298D01*
X0284971Y0232239D01*
X0284984Y0232180D01*
X0284993Y0232121D01*
X0284998Y0232060D01*
X0285000Y0232000D01*
X0285000Y0230500D01*
X0284500Y0230000D01*
X0275000Y0230500D02*
X0274500Y0230000D01*
X0274500Y0216000D01*
X0275000Y0215500D01*
X0275000Y0214000D01*
X0274998Y0213940D01*
X0274993Y0213879D01*
X0274984Y0213820D01*
X0274971Y0213761D01*
X0274955Y0213702D01*
X0274935Y0213645D01*
X0274912Y0213590D01*
X0274885Y0213535D01*
X0274856Y0213483D01*
X0274823Y0213432D01*
X0274787Y0213383D01*
X0274749Y0213337D01*
X0274707Y0213293D01*
X0274663Y0213251D01*
X0274617Y0213213D01*
X0274568Y0213177D01*
X0274517Y0213144D01*
X0274465Y0213115D01*
X0274410Y0213088D01*
X0274355Y0213065D01*
X0274298Y0213045D01*
X0274239Y0213029D01*
X0274180Y0213016D01*
X0274121Y0213007D01*
X0274060Y0213002D01*
X0274000Y0213000D01*
X0268000Y0213000D01*
X0267940Y0213002D01*
X0267879Y0213007D01*
X0267820Y0213016D01*
X0267761Y0213029D01*
X0267702Y0213045D01*
X0267645Y0213065D01*
X0267590Y0213088D01*
X0267535Y0213115D01*
X0267483Y0213144D01*
X0267432Y0213177D01*
X0267383Y0213213D01*
X0267337Y0213251D01*
X0267293Y0213293D01*
X0267251Y0213337D01*
X0267213Y0213383D01*
X0267177Y0213432D01*
X0267144Y0213483D01*
X0267115Y0213535D01*
X0267088Y0213590D01*
X0267065Y0213645D01*
X0267045Y0213702D01*
X0267029Y0213761D01*
X0267016Y0213820D01*
X0267007Y0213879D01*
X0267002Y0213940D01*
X0267000Y0214000D01*
X0267000Y0215500D01*
X0267500Y0216000D01*
X0267500Y0230000D01*
X0267000Y0230500D01*
X0267000Y0232000D01*
X0267002Y0232060D01*
X0267007Y0232121D01*
X0267016Y0232180D01*
X0267029Y0232239D01*
X0267045Y0232298D01*
X0267065Y0232355D01*
X0267088Y0232410D01*
X0267115Y0232465D01*
X0267144Y0232517D01*
X0267177Y0232568D01*
X0267213Y0232617D01*
X0267251Y0232663D01*
X0267293Y0232707D01*
X0267337Y0232749D01*
X0267383Y0232787D01*
X0267432Y0232823D01*
X0267483Y0232856D01*
X0267535Y0232885D01*
X0267590Y0232912D01*
X0267645Y0232935D01*
X0267702Y0232955D01*
X0267761Y0232971D01*
X0267820Y0232984D01*
X0267879Y0232993D01*
X0267940Y0232998D01*
X0268000Y0233000D01*
X0274000Y0233000D01*
X0274060Y0232998D01*
X0274121Y0232993D01*
X0274180Y0232984D01*
X0274239Y0232971D01*
X0274298Y0232955D01*
X0274355Y0232935D01*
X0274410Y0232912D01*
X0274465Y0232885D01*
X0274517Y0232856D01*
X0274568Y0232823D01*
X0274617Y0232787D01*
X0274663Y0232749D01*
X0274707Y0232707D01*
X0274749Y0232663D01*
X0274787Y0232617D01*
X0274823Y0232568D01*
X0274856Y0232517D01*
X0274885Y0232465D01*
X0274912Y0232410D01*
X0274935Y0232355D01*
X0274955Y0232298D01*
X0274971Y0232239D01*
X0274984Y0232180D01*
X0274993Y0232121D01*
X0274998Y0232060D01*
X0275000Y0232000D01*
X0275000Y0230500D01*
X0363000Y0093000D02*
X0369000Y0093000D01*
X0369060Y0092998D01*
X0369121Y0092993D01*
X0369180Y0092984D01*
X0369239Y0092971D01*
X0369298Y0092955D01*
X0369355Y0092935D01*
X0369410Y0092912D01*
X0369465Y0092885D01*
X0369517Y0092856D01*
X0369568Y0092823D01*
X0369617Y0092787D01*
X0369663Y0092749D01*
X0369707Y0092707D01*
X0369749Y0092663D01*
X0369787Y0092617D01*
X0369823Y0092568D01*
X0369856Y0092517D01*
X0369885Y0092465D01*
X0369912Y0092410D01*
X0369935Y0092355D01*
X0369955Y0092298D01*
X0369971Y0092239D01*
X0369984Y0092180D01*
X0369993Y0092121D01*
X0369998Y0092060D01*
X0370000Y0092000D01*
X0370000Y0090500D01*
X0369500Y0090000D01*
X0369500Y0076000D01*
X0370000Y0075500D01*
X0370000Y0074000D01*
X0369998Y0073940D01*
X0369993Y0073879D01*
X0369984Y0073820D01*
X0369971Y0073761D01*
X0369955Y0073702D01*
X0369935Y0073645D01*
X0369912Y0073590D01*
X0369885Y0073535D01*
X0369856Y0073483D01*
X0369823Y0073432D01*
X0369787Y0073383D01*
X0369749Y0073337D01*
X0369707Y0073293D01*
X0369663Y0073251D01*
X0369617Y0073213D01*
X0369568Y0073177D01*
X0369517Y0073144D01*
X0369465Y0073115D01*
X0369410Y0073088D01*
X0369355Y0073065D01*
X0369298Y0073045D01*
X0369239Y0073029D01*
X0369180Y0073016D01*
X0369121Y0073007D01*
X0369060Y0073002D01*
X0369000Y0073000D01*
X0363000Y0073000D01*
X0362940Y0073002D01*
X0362879Y0073007D01*
X0362820Y0073016D01*
X0362761Y0073029D01*
X0362702Y0073045D01*
X0362645Y0073065D01*
X0362590Y0073088D01*
X0362535Y0073115D01*
X0362483Y0073144D01*
X0362432Y0073177D01*
X0362383Y0073213D01*
X0362337Y0073251D01*
X0362293Y0073293D01*
X0362251Y0073337D01*
X0362213Y0073383D01*
X0362177Y0073432D01*
X0362144Y0073483D01*
X0362115Y0073535D01*
X0362088Y0073590D01*
X0362065Y0073645D01*
X0362045Y0073702D01*
X0362029Y0073761D01*
X0362016Y0073820D01*
X0362007Y0073879D01*
X0362002Y0073940D01*
X0362000Y0074000D01*
X0362000Y0075500D01*
X0362500Y0076000D01*
X0362500Y0090000D01*
X0362000Y0090500D01*
X0362000Y0092000D01*
X0362002Y0092060D01*
X0362007Y0092121D01*
X0362016Y0092180D01*
X0362029Y0092239D01*
X0362045Y0092298D01*
X0362065Y0092355D01*
X0362088Y0092410D01*
X0362115Y0092465D01*
X0362144Y0092517D01*
X0362177Y0092568D01*
X0362213Y0092617D01*
X0362251Y0092663D01*
X0362293Y0092707D01*
X0362337Y0092749D01*
X0362383Y0092787D01*
X0362432Y0092823D01*
X0362483Y0092856D01*
X0362535Y0092885D01*
X0362590Y0092912D01*
X0362645Y0092935D01*
X0362702Y0092955D01*
X0362761Y0092971D01*
X0362820Y0092984D01*
X0362879Y0092993D01*
X0362940Y0092998D01*
X0363000Y0093000D01*
X0372000Y0092000D02*
X0372000Y0090500D01*
X0372500Y0090000D01*
X0372500Y0076000D01*
X0372000Y0075500D01*
X0372000Y0074000D01*
X0372002Y0073940D01*
X0372007Y0073879D01*
X0372016Y0073820D01*
X0372029Y0073761D01*
X0372045Y0073702D01*
X0372065Y0073645D01*
X0372088Y0073590D01*
X0372115Y0073535D01*
X0372144Y0073483D01*
X0372177Y0073432D01*
X0372213Y0073383D01*
X0372251Y0073337D01*
X0372293Y0073293D01*
X0372337Y0073251D01*
X0372383Y0073213D01*
X0372432Y0073177D01*
X0372483Y0073144D01*
X0372535Y0073115D01*
X0372590Y0073088D01*
X0372645Y0073065D01*
X0372702Y0073045D01*
X0372761Y0073029D01*
X0372820Y0073016D01*
X0372879Y0073007D01*
X0372940Y0073002D01*
X0373000Y0073000D01*
X0379000Y0073000D01*
X0379060Y0073002D01*
X0379121Y0073007D01*
X0379180Y0073016D01*
X0379239Y0073029D01*
X0379298Y0073045D01*
X0379355Y0073065D01*
X0379410Y0073088D01*
X0379465Y0073115D01*
X0379517Y0073144D01*
X0379568Y0073177D01*
X0379617Y0073213D01*
X0379663Y0073251D01*
X0379707Y0073293D01*
X0379749Y0073337D01*
X0379787Y0073383D01*
X0379823Y0073432D01*
X0379856Y0073483D01*
X0379885Y0073535D01*
X0379912Y0073590D01*
X0379935Y0073645D01*
X0379955Y0073702D01*
X0379971Y0073761D01*
X0379984Y0073820D01*
X0379993Y0073879D01*
X0379998Y0073940D01*
X0380000Y0074000D01*
X0380000Y0075500D01*
X0379500Y0076000D01*
X0379500Y0090000D01*
X0380000Y0090500D01*
X0380000Y0092000D01*
X0379998Y0092060D01*
X0379993Y0092121D01*
X0379984Y0092180D01*
X0379971Y0092239D01*
X0379955Y0092298D01*
X0379935Y0092355D01*
X0379912Y0092410D01*
X0379885Y0092465D01*
X0379856Y0092517D01*
X0379823Y0092568D01*
X0379787Y0092617D01*
X0379749Y0092663D01*
X0379707Y0092707D01*
X0379663Y0092749D01*
X0379617Y0092787D01*
X0379568Y0092823D01*
X0379517Y0092856D01*
X0379465Y0092885D01*
X0379410Y0092912D01*
X0379355Y0092935D01*
X0379298Y0092955D01*
X0379239Y0092971D01*
X0379180Y0092984D01*
X0379121Y0092993D01*
X0379060Y0092998D01*
X0379000Y0093000D01*
X0373000Y0093000D01*
X0372940Y0092998D01*
X0372879Y0092993D01*
X0372820Y0092984D01*
X0372761Y0092971D01*
X0372702Y0092955D01*
X0372645Y0092935D01*
X0372590Y0092912D01*
X0372535Y0092885D01*
X0372483Y0092856D01*
X0372432Y0092823D01*
X0372383Y0092787D01*
X0372337Y0092749D01*
X0372293Y0092707D01*
X0372251Y0092663D01*
X0372213Y0092617D01*
X0372177Y0092568D01*
X0372144Y0092517D01*
X0372115Y0092465D01*
X0372088Y0092410D01*
X0372065Y0092355D01*
X0372045Y0092298D01*
X0372029Y0092239D01*
X0372016Y0092180D01*
X0372007Y0092121D01*
X0372002Y0092060D01*
X0372000Y0092000D01*
D15*
X0376000Y0093750D03*
X0366000Y0093750D03*
X0366000Y0072250D03*
X0376000Y0072250D03*
X0281000Y0212250D03*
X0271000Y0212250D03*
X0271000Y0233750D03*
X0281000Y0233750D03*
M02*
